<?xml version="1.0" encoding="UTF-8"?>
<svg id="Layer_2" data-name="Layer 2" xmlns="http://www.w3.org/2000/svg" viewBox="0 0 1571.3 389.53">
  <defs>
    <style>
      .cls-1 {
        fill: #606060;
        stroke-width: 0px;
      }
    </style>
  </defs>
  <g id="Layer_1-2" data-name="Layer 1">
    <g>
      <path class="cls-1" d="m1189.93,163.43l11.43-19.56c8.76-12.4,23.41-30.82,40.54-21.49,13,7.08,13.38,28.1,12.97,41.05l15.95-1.46c6.68-13.34,22.89-28.8,38.9-21.2,5.53,2.62,11.07,11.05,11.23,17.12.09,3.36-2.34,4.58-3.53,6.99-4.98,10.07-9.09,45.84-8.22,57.29,2.24,29.42,19.33-.76,24.5-10.31,5.69-10.49,10.95-22.55,15.32-33.68,5.85-14.9,8.84-34.02,21.29-44.83,8.89-7.72,23.93-10.17,32.16-.32.96,1.15.75,3,2.35,2.66,4.8-16.81,9.77-33.58,14.13-50.52,5.37-20.85,9.13-46.84,16.15-66.5,2.41-6.74,9.89-4.33,8.04,2.73-12.65,55.79-27.59,110.12-30.66,167.69-1.06,19.98-2.05,61.63,14.19,75.59,1.16.99,2.78,1.51,3.54,2.65-3.81-.42-7.66-3.91-10.02-6.8-7.07-8.64-10.04-25.62-11.22-36.59-2.56-23.85-.62-47.9,1.17-71.72l-2.21,5.75c-1.02,4.24.26,10.21-3.14,13.39-4.34,4.06-3.39,4.26-5.95,9.4-4.96,9.95-12.62,25.46-23.71,29.42-10.74,3.83-17.93-3.29-20.9-12.97l-2.52-16.65c-3,9.54-6.42,19.02-10.53,28.14s-12.47,26.76-22.32,30.81c-10.86,4.47-15.86-5.26-17.27-14.45-2.07-13.52,1.23-28.14,2.88-41.55l-13.27,18.31c-5.72,5.71-14.02,12.88-22.35,7.57-12.04-7.68-4.46-35.56,1.38-45.95-.91-.66-15.26,1.72-15.82,2.48-2.78,24.92-16.58,60.76-42.3,69.56-17.33,5.93-27.43-1.06-22.45-19.5,6.48-24.01,34.41-44.4,57.47-50.86.64-11.46,1.15-39.51-16.69-37.06-9.9,1.36-21.77,19.65-26.42,27.89-4.6,8.16-8.55,20.25-13.36,27.38-2.19,3.25-5.29,3.55-7.72.4l-2.43-12.62c-2.85,9.74-5.97,19.5-9.76,28.91-4.37,10.85-14.08,33.15-24.47,38.69-11.46,6.12-17.27-3.41-18.84-13.67-2.07-13.52,1.23-28.14,2.88-41.55l-8.01,11.75c-5.76,7.67-17.71,21.56-28.28,13.62-7.96-5.98-5.69-19.32-4.1-27.71.12-.61.77-1.94-.32-1.8-7.24,13.28-24.87,35.54-41.95,32.79-15.71-2.53-18.24-26.96-17.67-39.58.19-4.3,1.38-8.98,1.47-13.29-11.23,11.86-29.03,13.73-44.58,14.16-.98,9.3-.85,18.71-1.15,28.07-1.62,49.42-2,100.45,11.36,148.58,3.79,13.66,9.16,26.64,15.18,39.43-11.73-16.2-18.59-36.79-23.21-56.19-10.83-45.51-10.99-93-9.82-139.49.17-6.81-.49-13.65.57-20.39l-79.62-4.64c-10.52,29.6-21.8,59.49-28.72,90.24-1.26,5.6-1.67,12.43-3.05,17.61-2.04,7.64-11.84,6.37-12.58-.25-.35-3.16,1.88-13.1,2.64-16.77,6.37-30.91,18.94-61.18,29.22-90.9-26.49.71-52.62,6.34-70.55,27.14-3.83,4.45-7.83,14.78-15.02,10.31-6.24-3.88-1.32-10.12,1.75-14.13,20.95-27.28,55.04-34.09,87.85-33.47,12.34-31.08,25.06-62.14,39.73-92.21,7.1-14.54,29.07-59.05,42.79-65.24,11.83-5.34,14.57,9.04,15.99,17.51,3.63,21.74,2.02,44.59,1.97,66.56l-5.09,81.76c1,1.36,16.21.27,18.87-.09,7.66-1.02,19.03-4.72,24.58-10.25,3.08-3.07,4.13-10.98,5.73-15.52,4.17-11.8,13.46-29.62,27.59-30.86,16.74-1.46,21.38,15.85,17.45,29.26-1.69,5.78-8.92,20.04-16.34,13.07-5.11-4.8.38-8.73,2.63-12.61,7.93-13.64-.08-26.53-12.58-11.99-11.48,13.35-18.16,43.92-15.57,61.04,4.6,30.35,27.92,10.98,39.47-2.31,12.74-14.66,26.62-49.07,48.69-48.11,9.59.42,18.92,9.66,19.17,19.26.09,3.36-2.34,4.58-3.53,6.99-5.35,10.82-9.82,50.71-7.48,62.45,3.12,15.68,12.34,2.93,16.98-3.95,6.11-9.09,11.54-20.58,16.02-30.61,2.8-6.26,10.39-22.23,11.57-27.98,1.06-5.14-.52-14.67-.49-20.56,0-1.69.61-3.11.64-4.67.73-32.24,3.9-88.72,19.58-116.79,14.78-26.48,36.42-18.4,39.95,9.99,5.22,42.04-19.47,90.4-50.11,118v12.69Zm-210.16,3.54c1.35-22.59,2.15-45.06,2.93-67.62.91-26.43,2.81-53.29-1.92-79.5-.6-3.34-1.48-6.61-2.2-9.91-4.21,2.31-7.15,6.59-9.92,10.44-5.55,7.69-10.68,17.16-15.18,25.56-19.4,36.24-34.59,75.23-49.87,113.35l76.16,7.68Zm210.76-34.83c23.13-23.94,40.71-62.13,38.39-95.96-.41-5.96-2.9-22.36-12.03-16.7-13,8.06-20,49.23-22.15,64.04-2.32,15.96-3.77,32.49-4.21,48.62Zm195.87,6.65c-18.99,1.69-26.14,42.59-20.66,56.93,3.92,10.24,12.17-1.04,15.59-5.88,7.24-10.24,14.66-25.89,14.06-38.53-.29-6.15-1.4-13.19-8.99-12.52Zm-261.56,12.38c-13.27,2.15-24.14,25.97-25.22,37.95-.18,1.97-.6,10.98,1.53,11.45,5.26-1.97,9.15-6.63,12.61-10.89,7.69-9.44,13.25-20.76,19.85-30.97-.11-4.89-3.65-8.37-8.77-7.54Zm174.15,0c-13.27,2.15-24.14,25.97-25.22,37.95-.18,1.97-.6,10.98,1.53,11.45,5.26-1.97,9.15-6.63,12.61-10.89,7.69-9.44,13.25-20.76,19.85-30.97-.11-4.89-3.65-8.37-8.77-7.54Zm-52.39,16.98c-19.52,6.77-40.14,21.86-49.1,40.92-6.59,14.02-7.15,28.59,13.08,20.76,21.64-8.37,33.89-40.22,36.02-61.68Z"/>
      <path class="cls-1" d="m125.53,189.4l-14.66,30.5c-14.26,25-43.18,63.34-76.56,51.56C-3.16,258.24-1.85,186.05,1.63,154.35,6.71,108.12,30.68,23.62,81.72,9.52c55.21-15.26,50.89,57.38,19.2,75.87-1.7.99-6.47,3.44-8.21,3.64-5.72.68-9.3-6.01-5.84-10.6,1.42-1.88,5.84-2.86,8.15-4.25,17.02-10.29,27.83-55.17.7-55.39-15.72-.13-30.83,10.52-40.74,21.83C18.4,82.36-.3,175.39,12.36,228.49c12.01,50.37,48.29,47.43,77.74,12.55,21.82-25.84,38.16-61.65,44.89-94.73,1.04.4.67,3.51.61,4.45-.15,2.64-1,5.15-1.2,7.66-.05.65-.44,2.2.57,2.05,6.36-14.34,26.97-29.65,41.61-17.1,3.83,3.28,8.61,12.38,6.68,17.28-.73,1.85-1.97,2.4-2.69,3.8-5.03,9.76-9.2,45.86-8.42,57.15,1.87,27.44,15.91,5.17,21.97-5.24,9.33-16.02,15.93-33.76,22.89-50.91,3.4-37.13,7.99-74.16,14.98-110.76,2.03-10.64,4.01-22.67,7.2-32.95,1.73-5.57,2.72-11.77,10-10.59,8.44,1.36,2.32,12.89,1.09,17.55-9.67,36.55-16.72,78.03-21.35,115.62-2.81,22.84-5.6,49.03-4.23,71.97.39,6.52,1.84,24.86,11.79,18.82,12-7.28,33.06-53.74,37.67-68,1.79-5.54,1.1-10.12,2.18-15.53,1.91-9.56,13.12-7.71,12.73.9-.22,4.88-2.04,10.81-2.36,15.97-.28,4.61-.81,24.82,2.94,27.17,2.79,1.75,9.73-5.37,11.52-7.39,9.93-11.26,15.45-24.34,21.25-37.78,6.93-16.05,22.12-30.4,40.27-20.81l6.06,6.04c4.8-16.81,9.77-33.58,14.13-50.52,5.36-20.83,9.13-46.86,16.15-66.5.86-2.4,1.19-3.43,3.96-3.77,4.68-.57,4.44,3.51,3.98,6.99-2.22,16.79-8.67,38.29-12.53,55.36-8.56,37.88-15.95,72.63-18.04,111.84-1.06,19.98-2.05,61.63,14.19,75.59,1.16.99,2.78,1.51,3.54,2.65-3.81-.42-7.66-3.91-10.02-6.8-7.07-8.64-10.04-25.62-11.22-36.59-2.56-23.85-.62-47.9,1.17-71.72l-2.21,5.75c-1.02,4.24.26,10.21-3.14,13.39-.72.68-1.92.69-2.59,1.54-1.85,2.34-5.12,11.68-7.1,15.33-5.63,10.36-16.76,27.48-30.83,21.95-7.14-2.81-11.98-15.12-11.98-22.26v-11.51l-6.84,12.35c-11.15,19.39-28.84,24.37-33.14-2.77l-1.34-12.52c-5.66,16.76-12,34.37-20.79,49.76-4.75,8.31-15.71,25.18-27.07,19.04-9.69-5.24-10.97-31.4-11.21-41.33-.2-8.21.71-16.33.61-24.52l-8.56,23.6c-5.22,11.32-15.48,38.91-29.67,40.6-8.67,1.03-12.38-8.02-13.55-15.08-2.25-13.67,1.11-28.47,2.78-42.04l-13.27,18.31c-5.77,5.8-14.36,13.1-22.7,7.33-2.42-1.67-5.94-7.74-5.94-10.59v-9.15Zm224.81-50.62c-18.99,1.69-26.14,42.59-20.66,56.93,3.92,10.24,12.17-1.04,15.59-5.88,7.24-10.24,14.66-25.89,14.06-38.53-.29-6.15-1.4-13.19-8.99-12.52Zm-188.36,12.38c-13.27,2.15-24.14,25.97-25.22,37.95-.18,1.97-.6,10.98,1.53,11.45,5.26-1.97,9.15-6.63,12.61-10.89,7.69-9.44,13.25-20.76,19.85-30.97-.11-4.89-3.65-8.37-8.77-7.54Z"/>
      <path class="cls-1" d="m564.16,266.75c.14,1.08-1.24.52-1.79.31-13.83-5.12-18.08-30.33-19.45-43.13-2.56-23.85-.62-47.9,1.17-71.72l-2.21,5.75c-1.02,4.24.26,10.21-3.14,13.39-4.34,4.06-3.39,4.26-5.95,9.4-4.96,9.95-12.62,25.46-23.71,29.42-10.74,3.83-17.93-3.29-20.9-12.97l-2.52-16.65c-2.08,6.53-4.23,13.12-6.8,19.47-4.34,10.71-13.96,32.84-24.08,38.49-11.35,6.33-17.42-2.52-19.14-12.97-2.25-13.67,1.11-28.47,2.78-42.04l-8.01,11.75c-5.81,8.7-21.7,24.18-30.85,10.87-8.32-12.1,1.04-38.41,8.51-49.73,8.02-12.16,25.29-24.6,39.16-13.28,4.46,3.64,9.49,13.33,6.46,18.76-4.22,7.55-5.19,12.34-6.81,20.93-2.28,12.1-6.02,36.54-2.12,47.8,1.78,5.14,4.27,5.42,8.44,2.21,10.97-8.45,28.54-49.81,33.49-63.92,4.26-12.13,5.44-22.49,14.61-32.62,8.77-9.7,25.7-14.53,35.14-3.24.96,1.15.75,3,2.35,2.66,4.8-16.81,9.77-33.58,14.13-50.52,5.36-20.84,9.13-46.85,16.15-66.5,2.41-6.73,9.88-4.35,8.04,2.73-14.14,66.88-36.96,138.62-30.04,207.86,1.29,12.87,4.58,31.17,17.11,37.5Zm-43.8-127.96c-18.99,1.69-26.14,42.59-20.66,56.93,3.92,10.24,12.17-1.04,15.59-5.88,7.24-10.24,14.66-25.89,14.06-38.53-.29-6.15-1.4-13.19-8.99-12.52Zm-87.41,12.38c-13.27,2.15-24.14,25.97-25.22,37.95-.18,1.97-.6,10.98,1.53,11.45,5.26-1.97,9.15-6.63,12.61-10.89,7.69-9.44,13.25-20.76,19.85-30.97-.11-4.89-3.65-8.37-8.77-7.54Z"/>
      <path class="cls-1" d="m710.56,192.95c1.67-5.36,4.3-10.28,5.86-15.69,2.73-9.46,4.47-22.37-.45-31.34-2.21-4.03-5.82-6.46-8.95-9.64,23.17,9.89,14.65,41.49,6.54,59.26.37,1.54,15.95,9.35,18.45,10.49,4.98,2.29,13.39,2.82,11.34,10.54-1.36,5.13-6.02,4.8-10.08,3.55-8.82-2.73-17.46-8.28-25.37-12.89-11.36,17.6-27.32,39.08-49.25,43.31-20.25,3.9-32.68-9.36-35.39-28.44-4.13-29.08,11.61-58.82,28.15-81.49-11.27-25.34-13.36-59,5.45-81.36,17.17-20.42,40.84-13.5,38.94,14.73-1.59,23.61-18.21,45.66-31.81,63.88l-.38,1.41c7.77,15.73,19.25,30.91,32.18,42.76,2.64,2.42,10.26,9.23,13.01,10.61.61.31,1.08.41,1.75.31Zm-27.35-133.22c-6.96-7.02-17.75,4.75-21.3,10.47-10.78,17.35-10.27,40.6-2.41,58.98,9.92-13.96,20.93-29.56,24.92-46.5,1.32-5.61,3.07-18.63-1.21-22.94Zm-26.97,90.13c-.89-.21-.94.13-1.43.62-1.8,1.81-5.46,8.09-7.07,10.64-11.38,18.02-19.39,37.96-17.39,59.79,1.04,11.28,7.34,22.88,19.7,23.98,21.9,1.95,43.64-23.29,53.45-40.47l-.11-.75c-19.55-13.69-36-32.71-47.15-53.81Z"/>
      <path class="cls-1" d="m1528.23,171.67c.66.18,1.14,0,1.73-.28,2.15-1.01,5.84-4.24,8.47-5.7,8.87-4.93,24.46-11.48,32.86-3.14-1.99.32-3.72-1.17-5.65-1.43-11.4-1.51-25.41,8.17-33.86,15.06,6.98,12.84,19.02,25.18,15.14,41.09-6.57,26.91-56.76,22.9-46.3-11.47,3.13-10.28,12.01-19.26,19.24-26.86l-7.3-14.93c-5.68,8.16-13.8,14.49-22.59,19.02-2.63,15.52-12.27,41.02-31.71,39.41-17.33-1.44-19.66-25.28-18.59-38.65.23-2.92,1.75-6.84,1.75-9.46,0-2.89-1.63-7.3-1.64-10.63-.04-7.97,3.97-19.66,8.5-26.22,12.73-18.43,33.79-16.82,40.69,5.25,3.59,11.47,2.67,23.03,2.36,34.84,7.78-3.73,14.46-9.5,20.68-15.38-1.2-8.31-1.81-16.58,1.35-24.58,9.47-23.99,41.84-13.79,32.43,10.59-2,5.19-6.35,11.5-12.27,6.65-5.22-4.27-.74-7.61.73-11.7,2.99-8.33-5.33-9.37-8.99-3.09-6,10.29-1.96,21.88,2.99,31.58Zm-80.31-13.56c2.55-4.55,9.19-6.21,12.05-1.13,2.83,5.02-1.18,7.55-3.11,11.55-1.27,2.64-4.84,9.85-2.77,12.05,4.22,4.48,19.85,4.08,25.42,1.75,3.49-10.72,4.91-39.77-5.07-46.9-12.58-9-25.23,12.25-26.52,22.69Zm75.34,26.02c-8.35,8.28-25.8,30.98-10.82,40.21,9.33,5.75,25.33.22,25.75-11.72.25-7.06-8.47-22.12-13.28-27.32-.45-.49-.79-1.33-1.65-1.18Zm-71.81,2.32v10.92c0,1.14,1.4,6.19,1.9,7.54,1.02,2.72,2.96,5.95,6.12,6.32,9.42,1.1,16.88-15.78,18.54-23.3-8.81,2.17-18.18,2.3-26.57-1.48Z"/>
      <path class="cls-1" d="m286.49,121.72c3.23-.12,6.9,3.32,6.68,6.55-.25,3.66-10.03,18.9-12.11,6.85-.88-5.08-1.61-13.13,5.43-13.4Z"/>
    </g>
  </g>
</svg>