<?xml version="1.0" encoding="UTF-8"?>
<svg id="Layer_2" data-name="Layer 2" xmlns="http://www.w3.org/2000/svg" viewBox="0 0 822.04 269.66">
  <defs>
    <style>
      .cls-1 {
        fill: #606060;
        stroke-width: 0px;
      }
    </style>
  </defs>
  <g id="Layer_1-2" data-name="Layer 1">
    <g>
      <path class="cls-1" d="m504.81,154.02l-11.59,18.78c-16.12,15.59-18.45-.1-17.92-14.44.44-11.87,2.81-23.91,1.72-35.86-.17-1.84-1.1-7.67-3.18-7.85-1.51.07-2.85.91-4.04,1.77-12.1,8.64-26.05,44.3-30.23,58.88-.98,3.4-2.93,15.59-4.82,17.17-3.63,3.04-8.26-.3-8.52-4.75-.36-6.02,1.78-16.37,2.17-23,.34-5.8.38-11.88.3-17.63-6.07,6.31-12.38,12.56-20.42,16.33-2.29,12.8-9.32,33.1-23.72,36.16-23.75,5.05-25.87-29.12-21.55-44.66l-1.74-7.83c-7.29,27.77-21.39,58.38-41.09,79.55-30.85,33.15-66.22,26.85-78-18.11-13.76-52.53,3.23-145.07,40.34-186.12,12.33-13.64,28.73-23.62,47.8-22.28,32.86,2.31,25.44,51.52,7.22,68-3.85,3.48-17.28,12.54-20.01,3.79-2.02-6.49,4.01-7.34,7.85-9.57,8.57-4.97,14.18-16.19,15.94-25.72,6.65-35.92-27.28-28.98-45.48-13.05-38.26,33.48-55.8,121.64-49.11,170,7.75,56.03,43.87,62.76,77.72,19.98,18.98-23.99,32.94-55.03,39.14-84.97l1.14,2.31c3-9.89,11.85-21.46,23.03-21.82,22.7-.73,23.7,33.97,21.55,49.59,7.16-3.82,13.55-8.85,19.38-14.47.6-5.47.23-11.01.33-16.5.06-3.66-1.18-7.92,4.01-9.26,2.59-.67,7.53,1.66,7.53,4.08v22.85l10.41-18.81c5.63-8.14,13.62-21.14,25.16-19.33,9.71,1.53,8.42,20.98,7.85,28.01-.95,11.63-3.97,23.58-2.92,35.32.53,5.91,3.7,3.73,6.98,1.14,4.44-3.52,15.15-18.89,16.92-24.16,1.7-5.07,2.08-12.44,3.76-18.22,4.14-14.21,15.42-38.34,34.05-33.14,9.39,2.62,11.61,14.37,10.62,22.82-.71,6.01-7.9,22.28-15.77,16.46-6.01-4.44,1.18-9.95,3.01-14.17,3.97-9.15,1.24-20.94-9.76-12.07-13.79,11.13-20.62,46.17-16.98,62.68,6.57,29.78,34.67-2.31,42.93-13.61,2.18-2.99,8.31-11.33,9.49-14.23,3.16-7.76,2.89-14.41,8.66-22.01,5.13-6.75,17.76-14.49,23.9-4.99,8.72,13.49-8.02,43.29-25.16,42.2,3.71,37.01,37.25-.77,45.48-14.43,1.31-10.47.77-21.05.25-31.56-.18-3.57-2.07-8.48,0-11.58,3.17-4.73,9.71-2.79,10.86,2.45.91,4.16,1.2,12.15,1.32,16.62.2,7.66-.76,15.22-.6,22.87l7.42-20.06c4.56-9.74,13.57-24.14,26.28-20.27,13.25,4.03,16.38,27.46,16.08,39.18,5.23-.75,10.3-1.57,15.63-1.16l5.12-56.43-1.21-.73c-6.85.82-22.66,1.11-28.26-3.27-2.84-2.23-3-6.6-.28-9.01,3.91-3.48,7.43-.08,11.3.9,6.55,1.66,12.97,1.55,19.69,1.43,1.15-5.75,1.26-14.72,3.44-20,2.52-6.11,11.32-3.98,11.58,1.82.13,2.84-4.33,16.95-3.42,18.18,2.43-1.07,5.19-.44,7.8-.58,7.85-.42,23.79-2.11,30.6,1.83,1.44.83,3,2.44,2.69,4.25-1.92-.49-3.62-1.57-5.65-1.87-1.81-.26-3.8-.23-5.63-.14-10.2.51-21.3,3.9-31.47,5.28-1.45,11.07-3.44,22.1-4.7,33.19-2.24,19.79-4.87,45.1-1.58,64.61.66,3.93,2.23,12.76,7.37,12.37,6.64-.51,16.63-14.33,20.37-19.59,3.69-5.19,15.21-21.98,16.92-27.06,1.2-3.57,1.22-8.87,2.48-13.14,3.22-10.92,12.44-24.54,25.17-24.27,21.25.45,23.19,34.4,20.14,49.59,8.98-4.18,16.1-11.17,23.14-17.93-4.61,10.38-14.33,17.13-23.68,22.9-2.82,13.98-11.21,36.92-28.64,36.62-17.19-.3-19.4-23.93-18.29-36.66.39-4.5,2.7-8.62.28-13.03-6.49,13.38-12.95,27.77-22.85,39.07-15.57,17.76-26.63,11.29-30.53-10.02-2.21-12.09-1.86-24.89-1.9-37.15l-15.53,2.42c-1.62,14.83-4.35,33.21-16.59,43.29-12.75,10.5-27.08,5.26-21.56-12.87,4.3-14.11,18.74-25.16,31.7-30.92.55-7.79-2.5-30.59-10.59-33.88-9.78-3.98-17.28,13.31-19.97,20.24-15.98,41.25-15.43,92.07-20.53,135.67-.81,4.16-7.95,4.18-9.33.86-.63-1.52-.46-4.25-.4-5.96.73-24.43,3.85-48.97,4.68-73.42l1.13-37.33-9.85,14.15c-7.73,10.13-25.2,24.57-37.26,12.39-3.02-3.05-6.72-11.66-6.72-15.85v-10.12l-9.37,15.22c-7.98,13.14-31.42,35.8-45.29,17.7-2.48-3.24-6.13-13.1-6.13-17.02v-13.02Zm-135.45-14.46c2.92-2.89,5.91-5.2,9.81-2,5.03,4.13-1.18,10.6-2.97,14.91-2.87,6.89-3.84,8.85,4.27,10.98,5.95,1.56,12.29,1.03,18.13-.74,2.26-8.69,3.14-18.54,2.01-27.48-3.93-31.17-27.42-16.94-31.25,4.33Zm389.59.58c2.56-3.52,6.43-5.99,10.15-2.34,4.44,4.35.63,7.23-1.19,11.01-1.79,3.71-3.4,7.22-4.16,11.32,6.6,5.48,17.01,5.12,24.78,2.34,3.11-9.85,4.4-36.87-4.73-43.4-11.76-8.41-23.57,11.29-24.85,21.08Zm-168.46-17.36c-10.04,1.77-14.04,15.47-15.62,24.29,10.2-1.61,16.18-14.78,15.62-24.29Zm83.94,25.46c-11.41,2.91-27,20-28.3,31.58-1.11,9.86,5.43,10.55,12.49,6.13,11.44-7.17,14.42-25.45,15.81-37.71Zm-277.29,19.67c-7.97,1.67-16.68,2.12-24.3-1.16-1.79,5.22.3,22.51,7.31,22.96,8.68.55,15.52-14.8,16.99-21.8Zm365.28-1.16v11.28c0,.8,1.56,5.63,2.03,6.65,4.4,9.71,12.63,3.27,16.74-2.94,2.79-4.22,4.4-9.13,6.12-13.83-8.32,1.67-16.89,2.05-24.89-1.16Z"/>
      <path class="cls-1" d="m91.11,53.17c-3.15-3.19-1.47-8.39,2.81-9.81,7.8-2.6,13.97-2.43,21.49-7.45,11.88-7.94,10.05-19.69-4.1-22.87-19.59-4.4-44.12,10.4-56.58,24.71-14.71,16.9-28.9,50.88-7.8,67.99,12.14-6.52,35.77-17.07,49.01-10.24,8.27,4.27,5.33,12.78-1.02,17.13-12.28,8.41-35.15,9.31-48.79,3.92-27.59,19.1-50.88,73.23-33.09,104.02,9.01,15.59,26.24,18.24,42.68,14.28,34.64-8.34,60.81-51.32,74.66-81.58,2.04-4.46,6.17-12.71,7.17-17.13,1.71-7.52,1.62-18.24,2.64-26.29,3.79-29.81,8.23-68.62,17.01-96.97,1.57-5.07,2.61-10.88,9.23-9.8,8.32,1.36,1.79,13.38.48,18.35-9.84,37.43-17.04,81.61-21,120.16-1.59,15.53-5.37,54.36.7,67.55,4.6,10,13.7-2.67,17.13-7.5,13.25-18.61,20.55-41.98,29.93-62.65,1.28-1.27.81-.3.64.64-3.24,17.93-20.07,62.81-33.36,74.84-11.59,10.5-19.41,3.65-22.66-9.19s-3.19-28.88-2.22-42.28l.56-19.98c-12.46,35.72-39.57,85.95-78.74,96.89-27.28,7.62-50.69-3.52-56.46-32.08-6.84-33.87,11.27-74.23,37.36-95.76v-.85c-5.37-3.17-9.1-10.83-10.7-16.79C16.38,50.79,65.04-2.32,109.14,1.31c16.41,1.35,30.57,14.06,23.89,31.38-4.64,12.02-20.53,19.03-32.38,21.44-3.31.67-6.72,1.89-9.54-.96Zm.38,51.1c.18-.92-.2-1.25-1-1.59-5.17-2.22-19.81,1.88-25.35,3.91l-7.22,3.48c11.43,1.71,23.49-.18,33.57-5.79Z"/>
    </g>
  </g>
</svg>