<?xml version="1.0" encoding="UTF-8"?>
<svg id="Layer_2" data-name="Layer 2" xmlns="http://www.w3.org/2000/svg" viewBox="0 0 641.38 270.63">
  <defs>
    <style>
      .cls-1 {
        fill: #606060;
        stroke-width: 0px;
      }
    </style>
  </defs>
  <g id="Layer_1-2" data-name="Layer 1">
    <path class="cls-1" d="m137.32,141.19c.92-.36.31,2.32,1.49.59,1.01-1.49,1.57-3.98,2.61-5.8,12.18-21.31,35.98-23.75,43.74,2.07,3.85,12.81,1.62,21.08,1.94,33.42.02.82-.36,1.85.9,1.5,2.33-.64,10.91-7.11,13.21-9,1.48-1.22,6.51-5.37,7.06-6.74,2.49-6.15-4.61-26.15,4.92-27.48,2.06-.29,4.6-.07,6.13,1.44,4.06,4.01,1.2,20.52,1.41,26.51.03.72-.45,2.23.59,2.09,5.64-11.68,12.41-25.8,21.59-35.12,6.31-6.39,17.97-12.42,23.44-1.8,7.33,14.24-2.71,45.61-1.24,62.45.52,5.97,2.41,6.71,7.24,2.99,8.63-6.65,14.19-19.15,19.65-28.35.87-22.75,3.09-45.36,5.53-67.97-6.56,1.28-27.76.98-32.41-3.89-3.86-4.04-.92-10.91,4.52-11.15,2.65-.12,7.84,2.71,11.06,3.37,6.14,1.25,12.41.81,18.63.87.75-4.86,1.92-21.01,5.08-24.02,4.06-3.86,10.91-.91,11.15,4.52.12,2.75-4.65,18.41-3.63,19.49,10.26-.8,21.76-2.09,32.02-1.12,4.22.4,12.82,2.21,12.98,7.42-2-.39-3.65-1.76-5.76-2.04-8.02-1.09-31.04,2.7-39.41,4.92-.63.17-1.36.16-1.65.87-2.36,16.09-5.12,32.25-6.59,48.46-1.47,16.16-2.88,35.57-1.2,51.6.54,5.18,2.07,21.47,9.83,19.48,9.49-2.43,22.04-22.03,27.38-30.27,10.62-16.39,24.77-52.94,49.8-46.22,7.66,2.06,14.75,10.7,14.95,18.67.09,3.42-2.37,4.66-3.59,7.1-5.07,10.24-9.24,46.59-8.36,58.23,2.27,29.93,19.67-.83,24.91-10.48,6.81-12.56,16.3-32.74,20.36-46.24,5.07-16.84,4.92-31.75,17.15-46.46,16.19-19.48,38.97-11.15,35.92,14.92-.75,6.46-9.31,25.47-17.73,17.56-5.2-4.88.38-8.87,2.68-12.82,8.06-13.86-.08-26.96-12.79-12.19-11.67,13.57-18.46,44.65-15.82,62.04,5.05,33.33,32.02,7.87,43.12-5.94,3.58-4.46,11.06-14.22,13.33-19.08,2.76-5.92,2.23-25.74,2.9-33.71.95-11.32,2.86-22.57,3.59-33.9-6.91,1.15-26.82,1.11-32.12-3.58-4.29-3.8-1.4-11.21,4.23-11.46,2.65-.12,7.84,2.71,11.06,3.37,6.14,1.25,12.41.81,18.63.87,1.03-6.37,1.32-15.91,3.72-21.78,2.62-6.38,11.74-4.53,12.46,1.73.34,2.95-4.62,18.94-3.58,20.04,10.26-.8,21.76-2.09,32.02-1.12,4.22.4,12.82,2.21,12.98,7.42-2-.39-3.65-1.76-5.76-2.04-8.02-1.09-31.04,2.7-39.41,4.92-.63.17-1.36.16-1.65.87-2.36,16.09-5.12,32.25-6.59,48.46-1.6,17.52-3.28,39.69-.52,56.92,1.95,12.2,5.19,19.88,17.04,9.4,6.97-6.17,31.24-40.81,32.62-48.99.25-1.47-.09-3.02.23-4.57,3.04-14.97,12.84-34.24,30.76-32.89,22.03,1.66,22.78,37.4,20.68,53.42,8.8-3.93,16.7-10.81,23.23-17.83.34-.36.39-1.76,1.38-.46-5.46,10.56-15.3,18.39-25.68,23.83-2.7,16.09-12.9,42.67-33.28,39.91-16.71-2.26-18.91-25.93-17.85-39.14.39-4.89,3.3-10.1.29-14.71-6.53,13.98-13.31,28.44-23.12,40.48-12.84,15.77-27.46,20.72-33.76-3.41-3.13-12.02-2.97-25.32-3.44-37.67l-8.51,14.59c-12.13,20.83-45.7,49.27-56.72,10.74l-2.57-17.52c-2.23,8.1-4.98,16.2-8.12,23.99-4.55,11.3-15.1,35.85-26.88,40.32-10.84,4.12-15.75-5.8-17.14-14.88-2.11-13.74,1.25-28.6,2.92-42.23l-8.15,11.95c-5.87,7.81-17.69,21.54-28.41,14.11-6.22-4.31-6.34-13.58-6.06-20.39.06-1.39,1.42-4.36.03-5.07-4.88,9.98-11.25,21.24-18.9,29.41-14.21,15.17-25.82,11.54-30.73-8.29-2.77-11.18-2.63-23.45-3.18-34.92l-6.12,12.18c-5.18,12.09-24.95,30.68-26.9,5.54-1.24-15.98,3.3-33.38,1.81-49.82-.64-7.12-2.24-10.76-9-5.42-12.94,10.24-27.83,49.23-32.35,65.46-1.2,4.3-1.64,9.37-2.86,13.34-1.97,6.41-10.15,5.99-10.94-.84-.96-8.32,2.67-21.11,2.37-29.93l-.32-15.32c-5.88,7.31-13.38,13.29-21.77,17.53-2.69,16.08-12.9,42.67-33.28,39.91-19.39-2.62-20.01-34.43-16.06-48.75l-1.78-8.1c-7.35,28.14-20.76,56.79-39.03,79.49-33.46,41.57-77.06,41.68-91.15-15.03-14.03-56.47,3.94-153.33,41.98-198.56C59.96,11.76,79.48-1.55,101.04.15c38.38,3.02,28.03,64.58.89,79.54-4.04,2.22-10.38,5.63-13.73.51-5.14-7.85,4.19-9.72,8.51-12.33,17.29-10.45,28.29-56.07.71-56.3-15.98-.13-31.34,10.7-41.41,22.19C18.75,76.26-.31,171.18,12.8,225.19c12.37,50.94,49.24,47.4,78.89,12.28,22.19-26.27,38.79-62.66,45.63-96.29Zm6,12c2.6-4.63,9.34-6.31,12.24-1.15,2.87,5.1-1.2,7.67-3.16,11.74-1.29,2.68-4.92,10.01-2.81,12.24,4.29,4.55,20.17,4.14,25.84,1.78,3.55-10.9,4.99-40.42-5.15-47.67-12.79-9.15-25.65,12.45-26.96,23.06Zm429.64,0c2.6-4.63,9.34-6.31,12.24-1.15s-1.2,7.67-3.16,11.74c-1.29,2.68-4.92,10.01-2.81,12.24,4.29,4.55,20.17,4.14,25.84,1.78,3.55-10.9,4.99-40.42-5.15-47.67-12.79-9.15-25.65,12.45-26.96,23.06Zm-190.98-7.06c-13.48,2.19-24.53,26.4-25.64,38.57-.18,2.01-.61,11.16,1.55,11.64,5.35-2,9.3-6.74,12.82-11.07,7.82-9.6,13.47-21.1,20.18-31.48-.11-4.97-3.71-8.51-8.92-7.67Zm-235.07,35.86v11.1c0,1.16,1.42,6.29,1.94,7.67,1.03,2.76,3,6.05,6.22,6.42,9.58,1.12,17.16-16.04,18.85-23.68-8.95,2.21-18.48,2.33-27.01-1.51Zm429.64,0v11.1c0,1.16,1.42,6.29,1.94,7.67,1.03,2.76,3,6.05,6.22,6.42,9.58,1.12,17.16-16.04,18.85-23.68-8.95,2.21-18.48,2.33-27.01-1.51Z"/>
  </g>
</svg>