<?xml version="1.0" encoding="UTF-8"?>
<svg id="Layer_2" data-name="Layer 2" xmlns="http://www.w3.org/2000/svg" viewBox="0 0 1001.63 258.84">
  <defs>
    <style>
      .cls-1 {
        fill: #606060;
        stroke-width: 0px;
      }
    </style>
  </defs>
  <g id="Layer_1-2" data-name="Layer 1">
    <g>
      <path class="cls-1" d="m692.84,140.3l-9.69,19.01c-2.91,5.28-12.54,17.72-19.2,11.19-6.33-6.21-.35-31.25.7-39.82.71-5.77,1.86-14.1,1.08-19.74-1.45-10.48-9.39,5.04-10.73,7.83-4.73,9.84-7.39,20.29-11.3,30.34-1.68,4.33-4.2,10.85-9.93,9.91-1.87-.3-3.44-2.72-3.79-4.46-1.19-5.78,2.9-21.98,3.9-28.79,1.38-9.39,3.46-21.73,2.68-31.07-.11-1.27-.43-5.03-1.98-4.64-3.11.79-7.78,8.14-9.34,10.94-9.69,17.44-16.83,46.8-20.45,66.59-.7,3.84-1.25,14.21-3.49,16.67-2.11,2.31-6.35,1.73-8.05-.86-1.45-2.21-1.91-8.97-2.08-11.8-.23-3.73.03-7.59.01-11.24-.02-4.91-.21-9.88.25-14.76.04-.41.44-1.28-.26-1.2-2.83,9.4-6.11,18.72-9.96,27.75-4.01,9.41-13.66,31.05-24.54,33.24-17.61,3.55-14.6-28.29-13.48-38.25.54-4.84,1.62-9.66,2.2-14.49-5.55,7.51-10.51,16.55-18.26,22.07-10.14,7.23-19,2.72-20.76-9.13l.38-12.94c-4.42,8.82-9.78,18.45-16.32,25.89-14.34,16.3-25.69,12.65-30.03-8.25-2.36-11.37-2.13-23.69-2.43-35.28-16.28,14.51-21.27-9.97-25.7-21.01-3.49,5.07-5.2,11.64-6.84,17.55-3.79,13.66-5.32,27.43-8.55,40.98-.76,3.2-1.85,7.68-5.51,8.75-7.66,2.24-8.46-9.15-8.94-14.19-.78-8.11-.44-16.26-.75-24.39-.02-.45.28-1.4-.37-1.31-2.31,8.91-5.4,17.72-8.83,26.25-4.11,10.21-14.7,35.38-26.42,37.74-17.61,3.55-14.6-28.29-13.48-38.25.54-4.84,1.62-9.66,2.2-14.49-5.91,7.89-11.79,18.86-20.76,23.7-9.19,4.95-17.14-.66-18.22-10.42-1.28-11.55,3.09-25.05,8.59-35.04-5.76.5-11.58,1.08-17.07,2.99-.79,5.03-1.13,10.08-2.18,15.08-2.28,10.87-7.47,23.93-17.4,29.87-10.63,6.36-21.75,3.03-19.53-10.9,2.46-15.39,18.84-29.1,32.56-34.68.25-8.85-1.58-27.83-9.42-33.3-8.29-5.79-16.02,8.07-18.8,14.17-11.81,25.86-16.33,67.21-19.07,95.74-1.38,14.37-1.33,30.15-3.42,44.23-.55,3.69-2.62,3.81-5.79,4.72-2.48-1.55-4.14-2.2-4.22-5.42,2.46-38.21,4.88-76.34,5.92-114.62-2.04,2.82-3.69,5.89-5.69,8.75-7.07,10.09-21.78,27.09-35.83,22.09-21.67-7.72-13.3-62.68,9.19-67.87,13.19-3.05,15.17,10.66,12.88,20.38-2.9,12.34-12.93,24.93-26.29,26.05-.15,5.86,2.5,15.27,9.56,15.74,10.31.68,24.54-15.33,30.34-22.93,2.88-3.77,5.91-6.92,6.25-11.76.55-7.8.04-17.65-.39-25.53-.26-4.74-3.27-13.84,3.07-15.7,3.75-1.1,6.95,1.23,7.73,4.9,1.16,5.48.32,11.97,1.23,17.53l-.39,21.96,6.68-18.64c4.44-10.75,15.76-28.22,29.58-20.44,11.02,6.2,13.62,26.54,13.26,37.96,5.85-.84,11.67-2.12,17.63-1.29,6.43-11.17,19.73-23.14,33.59-17.85,6.02,2.3,11.58,10.32,11.78,16.74.09,3.02-1.88,3.68-3,5.57-2.48,4.19-4.72,18.06-5.54,23.35-1.58,10.17-3.46,24.74-1.89,34.78,3.12,19.92,17.11-4.52,20.65-10.77,8.56-15.07,14.59-31.46,21.23-47.43.48-5.64-.26-12.35.5-17.89,1-7.33,10.82-7.15,11.89-.32.52,3.29-.88,11.07-1.05,14.9-.26,5.8-.3,11.65-.36,17.46l5.24-17.83c2.13-5.57,7.04-21.92,13.21-23.56,4.48-1.19,6.48,3.37,7.63,6.87,1.79,5.48,3.32,20.04,9.63,21.89,3.47,1.02,6.86-1.33,9.72-3,.75-1.17.24-7.07.33-8.96.61-12.24,1.71-24.57,3.02-36.75.5-4.69,1.22-9.4,1.87-14.07-8.45.41-20.53,1.28-28.28-2.67-5.76-2.94-3.4-11.1,2.58-11.24,2.27-.05,5.29,1.84,7.69,2.47,6.05,1.6,12.89,1.66,19.12,1.66,1.19-6.2,1.46-13.39,3.29-19.41,2.01-6.62,10.5-6.14,11.71.52l-3.36,18.15,16.31-1.14c6.76.17,15-.5,21.3,2.37,1.82.83,4.37,2.37,3.48,4.77-2.03-1.16-4.47-2.01-6.8-2.2-7.08-.58-27.41,3.01-34.76,4.94-.4.1-.85.1-1.03.55-2.67,17.64-5.47,35.37-6.75,53.19-.89,12.46-2.63,42.81,2.93,53.34,1.47,2.79,2.96,4.06,6.17,3.04,8.72-2.79,20.58-21.39,25.57-29.21,7.69-12.06,15.74-31.6,28.48-38.3,10.51-5.53,22.84-3.71,27.82,7.95,1.75,4.09,2.94,7.37.34,11.21-2.98,4.42-3.69,8.61-4.84,13.92-2.43,11.17-6.99,40.42-2.61,50.27,4.21,9.47,14.04-6.66,16.47-10.53,6.97-11.1,12.65-24.24,17.65-36.37,1.77-4.28,5.7-12.28,6.49-16.4,1.2-6.27,1.06-13.97,2.01-20.5.41-2.81.41-6.03,3.2-7.68,4.08-2.41,8.93.41,9.15,4.99-.28,4.52-1.54,9.04-1.88,13.53-.03.41-.28,1.4.37,1.3,1.66-5.85,3.83-11.65,6.21-17.24,3.9-9.18,12.86-28.89,25.08-27.74,10.33.97,9.44,17.24,8.86,24.53-.8,10.02-3.04,19.91-4.49,29.83l9.31-21.26c3-5.79,10.8-16.98,18.26-11,5.64,4.52,3.26,18.46,2.38,24.89-1.24,9.1-6.93,30.32-4.57,38.09,1.28,4.22,5.39,1.72,7.64-.12,5.3-4.34,16.95-23.59,19.31-30.21.87-2.45,1.02-5.12,1.72-7.66,2.62-9.45,7.62-21.55,17.51-25.26,14.19-5.33,17.76,8.19,15.23,19.35-2.82,12.44-12.9,25.22-26.37,26.35.63,14.11,7.48,20.03,20.44,12,10.21-6.33,18.65-17.79,25.3-27.6.54-6.46-.66-13.91.02-20.24.49-4.53,5.76-6.86,9.39-4.13.54.4,2.24,2.52,2.24,3.01v23.45l11.1-20.23c4.27-7.78,20.46-27.12,29.42-15.23,7.36,9.77.58,38.59,0,51.03-.1,2.21-.66,12.23,1.76,12.89,1.6.05,3.52-1.22,4.79-2.21,5.74-4.5,14.67-18.34,17.66-25.11,1.64-3.72.71-7.84.91-11.85.59-12.24,1.71-24.57,3.02-36.75.5-4.69,1.22-9.4,1.87-14.07-8.26.38-21.07,1.31-28.53-2.8-5.44-2.99-3.06-10.97,2.83-11.12,2.27-.06,5.29,1.84,7.69,2.47,6.05,1.6,12.89,1.66,19.12,1.66.66-4.38,1.18-8.82,2.01-13.18.67-3.47,1.06-9.56,5.12-10.63,4.24-1.12,7.68,1.34,7.92,5.64l-3.41,17.45,16.31-1.14c6.13.07,12.57-.3,18.5,1.42,2.64.76,6.84,2.15,6.47,5.54-1.53-.29-2.9-1.23-4.42-1.58-5.95-1.39-16.43.87-22.67,1.89-4.51.74-10.36,1.49-14.66,2.62-.4.1-.85.1-1.03.55-2.47,16.16-5.02,32.38-6.37,48.69-1.11,13.29-3.34,46.67,2.56,57.84,1.59,3.01,3.09,4.08,6.44,2.93,8.63-2.96,20.31-21.29,25.3-29.1,2.3-3.61,9.35-13.99,10.44-17.33.72-2.21.65-5.74,1.15-8.23,2.83-14.28,15.14-34.02,32.35-27.69,16.47,6.05,15.3,32.84,14.42,46.71-.04.56-.26,1.56.56,1.32,1.02-.3,3.46-1.95,4.52-2.61,5.31-3.32,10.24-7.59,14.64-12.02-1.66-8.43-1.64-17.81,2.61-25.51,9.92-17.98,35.72-8.94,29.47,11.09-1.51,4.85-5.8,12.7-11.83,8.43-5.63-3.98-.15-8.62.83-12.68,1.57-6.53-5.64-7.19-8.82-1.69-5.29,9.12-2.25,21.29,3.3,29.58,5.01-3.05,9.82-6.47,15.25-8.78,7.19-3.06,18.79-6.43,24.52.69-13.19-5.93-27.1,4.51-37.12,12.23,6.58,11.38,17.34,23.07,14.44,37.31-5.11,25.1-49.39,22.55-44.38-5.73,2.02-11.43,11.48-21.41,19.32-29.36-2.52-4.39-5.38-8.74-6.67-13.7-.52-.1-.48-.07-.78.24-1.09,1.14-2.32,3.33-3.53,4.64-4.88,5.29-11.12,9.44-17.24,13.15-2.71,13.04-9.24,33.14-24.2,36.2-20.66,4.23-24.21-22.2-22.53-36.78.27-2.33,1.51-5.86,1.49-7.89,0-1.36-1.01-2.83-.75-4.31l-.84.48c-5.59,11.81-11.31,23.95-19.26,34.38-10.61,13.92-25.57,23.72-32.32.11-3.16-11.08-2.94-23.16-3.49-34.6l-6.45,12.87c-3.14,5.32-9.73,15.29-16.62,15.26-8.14-.02-7.5-14.57-7.31-20.07.39-11.45,2.6-23.04,1.89-34.54-.32-5.1-.73-13.3-7.49-8.21-12.86,9.69-27.04,46.58-31.07,62.36-.82,3.22-1.69,10.93-3.48,13.03-1.66,1.96-4.36,2.18-6.51.88-2.54-1.54-2.24-5.39-2.12-8.01.31-6.72,1.48-13.84,1.87-20.64.26-4.66.3-9.4.38-14.07-2.04,2.82-3.69,5.89-5.69,8.75-7.23,10.32-19.16,24.18-33.13,22.76-8.79-.89-15.2-13.26-15.2-21.19v-8.82Zm223.16,11.17c2.48-10.85,3.59-23.48.56-34.34-4.36-15.63-16.42-13.92-24.42-2.08-2.66,3.94-5.3,9.23-5.51,14,1.77-3.75,6.03-5.72,9.58-2.82,5.55,4.53-.43,9.78-2.44,14.46-.6,1.39-2.73,7.23-2.46,8.36,7,5.25,16.63,4.57,24.7,2.43ZM216.72,111.41c-3.05-.03-5.84,2.68-7.7,4.87-4.65,5.51-6.41,12.84-8.07,19.7,5.85-.56,10.67-6.29,13.08-11.3.53-1.1,2.68-6.62,2.68-7.45v-5.82Zm500.89,0c-3.05-.03-5.84,2.68-7.7,4.87-4.65,5.51-6.41,12.84-8.07,19.7,5.85-.56,10.67-6.29,13.08-11.3.53-1.1,2.68-6.62,2.68-7.45v-5.82Zm-367.79,10.97c-13.8,2.13-24.96,28.97-23.91,41.36.18,2.17.38,4.96,3.09,4.23,2.27-.61,7.58-6.37,9.27-8.36,7.73-9.11,13.27-20.24,19.62-30.31-.13-4.43-3.42-7.64-8.08-6.92Zm190.6,0c-13.8,2.13-24.96,28.97-23.91,41.36.18,2.17.38,4.96,3.09,4.23,2.27-.61,7.58-6.37,9.27-8.36,7.73-9.11,13.27-20.24,19.62-30.31-.13-4.43-3.42-7.64-8.08-6.92Zm-239.65,14.17c-11.24,4.6-22.47,15.64-26.82,27.02-3.67,9.59-.69,17.67,10.32,11.45,12.1-6.84,15.41-25.8,16.5-38.46Zm656.59,16.13c-7.04,6.91-17.47,19.63-16.03,30.11,1.94,14.17,27.8,12.4,29.12-2.2.93-10.28-8.28-19.68-13.09-27.91Zm-67.53,2.63v10.32c0,1.39,1.37,5.94,1.97,7.41,1.26,3.09,3.09,5.8,6.8,5.5,8.18-.68,14.23-14.98,16-21.91-6.48,1.32-13.39,2.17-19.89.37-1.71-.47-3.15-1.43-4.87-1.69Z"/>
      <path class="cls-1" d="m180.12,42.75c9.25-4.07,18.63-8.3,28.51-10.7.59-.14,2.72-.9,3-.19-10.36,3.78-20.82,7.96-30.35,13.38,3.29,10.2,5.82,20.73,6.71,31.46,5.48,65.84-29.81,140.69-93.32,165.56-45.48,17.81-67.92-1.45-52.9-48.77,7.39-23.29,21.53-44.82,35.82-64.36,1.86-22.98,3.48-46.21,8.09-68.82.37-1.81.64-4.28,1.2-5.93,2.1-6.26,11.34-5.29,11.47,1.68-3.2,19.05-8.73,38.89-10.15,58.16-.03.46-.19,1.39.18,1.68,23.59-26.99,50.72-51.33,82.5-68.33l.56-.82c-7.02-18.47-22.14-34.79-42.92-36.27C81.68,7.14,31.63,56.28,16.89,97.7c-7.41,20.83-8.49,43.38,7.32,60.61,1.83,1.99,6.76,5.46,7.23,7.77,1.28,6.19-4.92,9.68-10.01,5.89C8.13,162.04.15,142.53,0,126.21-.53,68.68,70.78-6.08,129.98.39c24.5,2.68,41.61,20.15,50.14,42.35Zm-102.81,96.42c-13.96,19.93-28.08,43.56-32.52,67.84-8,43.74,26.48,38.69,54.42,25.15,55.06-26.67,85.73-96,79.4-155.46-.96-9.05-2.91-18.11-5.99-26.66-33.6,18.63-62.05,45.63-85.64,75.71-2.94,28.18-4.19,56.55-4.02,84.9l-.77,9.55c-1.7-1.62-1.84-5.06-2.19-7.37-1.91-12.55-2.73-27.38-3.07-40.08-.3-11.18.07-22.47.39-33.6Z"/>
    </g>
  </g>
</svg>