<?xml version="1.0" encoding="UTF-8"?>
<svg id="Layer_2" data-name="Layer 2" xmlns="http://www.w3.org/2000/svg" viewBox="0 0 829.38 244.66">
  <defs>
    <style>
      .cls-1 {
        fill: #606060;
        stroke-width: 0px;
      }
    </style>
  </defs>
  <g id="Layer_1-2" data-name="Layer 1">
    <g>
      <path class="cls-1" d="m355.38,170.64c.03-.49,1.28-2.01.3-2.64-7.91,15.67-27.51,24.87-33.03,1.89l-1.33-11.28c-5.25,15.3-11.15,31.45-19.51,45.37-4.73,7.88-16.84,25-27.14,14.44-6.06-6.21-7.66-25.67-8.01-34.26-.44-10.65.45-21.41,1.19-32.01-3.12,3.96-5.19,8.66-7.98,12.86-7.98,12.01-25.83,33.97-42.34,25.4-9.53-4.95-11.35-19.57-11.93-29.17-.04-.66.39-1.61-.58-1.45-4.41,12.55-15.31,41.62-28.79,46.06-14.06,4.64-23.31-16.48-27.31-26.7-5.65,3.54-8.48,9.87-10.44,15.98-.82,2.55-.57,6.33-2.76,8.09-4.27-12.31,2.87-23.17,9.97-32.6-2.89-8.23-3.66-17.96-6.16-26.1-.17-.56-.1-1.34-.87-1.17-11.72,34.24-33.81,75.97-66.95,93.62-27.17,14.47-60.11,9.46-69.15-23.07-9.72-34.97,9.55-79,36.83-101.38v-.86c-6.11-3.75-10.21-12.88-11.57-19.85C19.35,48.28,65.69-2.66,109.6.11c27.38,1.73,37.72,29.01,13.96,45.11-5.28,3.58-19.59,9.23-25.82,9.46-7.55.28-9.63-9.48-2.44-11.88,7.91-2.64,14.18-2.46,21.8-7.56,11.71-7.83,10.47-19.67-3.69-23.09-21.5-5.19-47.67,12.02-60.49,28.22-13.46,17.01-25.87,49.92-5.02,65.83,11.71-7.01,37.02-17.53,49.81-10.27,7.98,4.53,4.94,12.81-1.4,17.16-9.93,6.8-29.52,8.86-41.1,6.53-1.83-.37-7.71-2.81-8.75-2.39C19.42,137.06-2.21,185.55,10.91,217.87c9,22.16,31.96,24.41,52.27,17.04,31.36-11.38,55.63-51.21,68.92-80.21,1.48-3.22,6.26-13.02,6.52-15.84s-1.03-7.46-1.18-10.47c-.25-5.24-1.17-15.72,6.71-14.96,7.69.74,4.9,10.3,5.04,15.55.06,2.4.39,5.72.62,8.19.76,8.19,2.68,16.29,4.11,24.36,7.06-6.5,12.45-15.86,15.1-25.11,1.47-5.16,1.09-15.08,8.63-14.2,7.94.93,4.47,10.39,2.99,15.24-4.24,13.91-13.08,24.35-23.69,33.87-.61,2.55,5.92,16.87,7.66,19.73,5.79,9.54,9.61,9.55,16.9,1.27,7.14-8.1,22.1-35.3,24.87-45.57,4.09-15.13,4.24-26.24,14.26-39.74,15.83-21.32,40.09-10.45,33.92,15.11-1.37,5.67-8.9,21.12-16.1,13.33-4.68-5.07,1.16-8.46,3.29-12.63,4.82-9.46,2.02-22.94-9.99-12.92-12.78,10.65-19.61,44.35-17.27,60.07,6.15,41.46,47.02-10.87,53.84-25.29,3.61-40.05,8.33-81.41,17.34-120.6.99-4.29,4.27-20.83,8.45-22.07s8.87,1.3,8.42,6.02c-12.08,43.37-20.67,89.53-25.27,134.43-1.54,14.98-5.51,57.25,1.05,69.37,3.42,6.32,8.75,1.45,12.17-2.17,10.14-10.72,27.19-46.28,31.45-60.72,1.86-6.32,2.64-21.76,7-26.46,3.62-3.9,10.21-1.39,10.56,3.61.15,2.21-3.69,11.94-4.4,15.46-1.36,6.76-3.73,24.16-.52,29.9,1.39,2.49,2.82,1.49,4.8.19,7.08-4.64,14.54-22.48,17.62-30.52,2.89-7.56,5.13-15.29,7.5-23.03,1.38-1.93,4.5-2.41,6.49-1.22,3.83,2.29-.55,12.74-1.33,16.35-3.59,16.49-9.88,47.08-6.47,63.05,3.03,14.17,9.23,3.62,13.23-2.89,4.77-7.75,8.58-17.02,12.13-25.44,1.73-4.1,8.47-19.01,8.82-22.2.2-1.89-1.35-6.51-1.48-9.15-.28-5.69.84-12.64,3.44-17.74,9.79-19.19,38.3-9.64,29.58,12.54-1.76,4.48-5.23,10.09-10.9,7.15-6.7-3.47.15-10.13.69-13.87.91-6.25-6.39-5.72-9.41-.55-5.54,9.49-1.43,20.83,3.07,29.76,4.8-2.37,9-5.88,13.88-8.13,2.23-1.03,10.26-4.19,12.25-4.19h9.69c.45-3.8-.09-9.66,3.55-12.01,3.21-2.07,7.45-.61,8.83,2.87,1.06,2.68-1.47,13.24-1.8,17.07-.56,6.46-1.03,17.6.99,23.65,1.96,5.86,5.58,2.73,9-.17,4.63-3.93,17.38-22.45,19.51-28.05,1.77-4.67-2.06-19.9,8.24-17.91,7.27,1.41,3.53,11.61,3.35,16.58-.29,7.86-.34,26.38,4.47,32.56,1.19,1.53,1.87,2.14,3.94,1.7,6.84-1.46,12.57-18.9,14.36-25.01,2.6-8.88,3.77-21.53,6.95-29.47.38-.94-.06-1.43,1.44-1.17.33,10.06-.31,20.05-2.04,29.94-1.84,10.57-7.13,32.8-20.03,34.56-16.71,2.28-18.67-21.91-20.51-33.41-3.98,9.07-12.89,28.07-22.94,31.08-18.48,5.54-18.72-29.7-17.3-40.47-12.48-1.09-23.69,6.9-32.84,14.37,8.4,12.24,20.99,28.37,12.6,43.75-9.72,17.8-45.08,14.67-43.18-9.7.16-2.05,1.3-4.1.87-6.18-3.56,7.14-10.15,26.19-20.75,23.09-4.54-1.33-6.89-7.24-7.92-11.44-.47-1.91-1.57-6.73-1.57-8.41,0-6.07-.4-12.82,0-18.78ZM92.83,104.6c.18-.94-.2-1.27-1.01-1.62-5.25-2.25-20.1,1.91-25.72,3.96l-7.33,3.53c11.6,1.73,23.83-.18,34.06-5.87Zm295.43,77.48c3.14-8.67,10.15-15.01,16.37-21.5l-5.79-11.94-10.87,31.68.3,1.77Zm19.68-17.01c-7.2,7.67-22.06,25.33-13.52,35.8,6.1,7.48,21.59,5.58,25.8-3,5.45-11.12-6.39-24.14-12.28-32.8Z"/>
      <path class="cls-1" d="m828.63,6.73c1.03,1.03.75,3.89.57,5.29-2.07,16.53-8.66,38.19-12.47,55.04-8.15,36.05-15.35,70.35-16.77,107.67-.63,16.5-.64,54.16,12.04,66.08l5.02,3.49c-12.36-3.16-16.58-19.29-18.61-30.41-4.65-25.55-2.36-53.03-.19-78.75l-2.17,5.75c-1.27,3.61-.01,7.7-1.82,11.09-1.13,2.13-3.07,2.41-4.15,4.07-2.95,4.53-5.3,12.19-8.41,17.42-9.25,15.59-26.32,28.99-36.32,5.41l-2.91-16.15c-4.38,13.56-9.56,28.07-16.94,40.3-4.95,8.21-17.54,24.42-26.79,11.31-7.73-10.96-2.19-35.93-.92-48.68-5.65,7.49-15.45,24.14-25.54,25.24-20.35,2.21-13.39-29.05-8.97-40.06,5.74-14.32,21.54-34.32,39.21-26.55,5.4,2.37,11.71,11.66,11.15,17.55-.26,2.72-2.29,3.17-3.11,4.62-4.7,8.25-8.75,44.76-8.06,54.74,2.06,30.27,20.47-4.12,25.11-13.1,4.41-8.54,8.63-18.2,12.19-27.14,5.89-14.82,8.81-33.69,21.76-43.99,7.25-5.76,19.98-8.21,27.31-1.49,1.51,1.38,1.94,3.01,2.87,4.05.47.52.45.49,1.22.37,11.95-36.99,19.19-75.34,29.68-112.68.81-1.71,4.97-1.51,6.02-.46Zm-47.62,117.43c-3.05-2.75-9.1-.78-12.12,1.32-12.12,8.45-18.18,38.86-12.66,51.9,3.58,8.46,10.67-.99,13.69-5.1,7.18-9.76,14.5-24.63,14.2-36.86-.06-2.68-1.13-9.48-3.12-11.27Zm-111.36,56.69c2.01,1.38,8.01-4.67,9.36-6.09,9.07-9.57,14.92-22.22,22.07-33.17-.39-8.08-6.87-8.48-12.99-5.31-12.19,6.33-21.92,31.39-18.43,44.57Z"/>
      <path class="cls-1" d="m667.7,6.73c1.03,1.03.75,3.89.57,5.29-2.07,16.53-8.66,38.19-12.47,55.04-2.99,13.25-6.58,25.7-8.93,39.21-5.49,31.64-13.87,94.24-2.4,123.52,2.39,6.11,5.03,10.58,10.87,13.8,1.22.67,1.48.71-.11.7-12.88-4.95-16.62-22.11-18.43-34.41-3.62-24.49-1.69-50.19.48-74.73l-2.17,5.75c-1.39,4.18.3,8.98-2.79,12.48-4.9,5.55-4.58,7.1-7.86,13.28-5.17,9.77-14.34,26.1-27.35,24.77-13.25-1.35-16.28-23.03-14.46-33.39-2.84,3.59-4.51,8.1-7.03,12.04-4.46,6.98-13.98,19.64-23.48,13.46-8.27-5.38-9.19-26.77-8.86-35.8.13-3.47.53-10.22,1.24-13.43,1.92-8.6,12.26-6.49,12.23.47-.02,3.91-1.9,10.31-2.28,14.75-.56,6.46-1.03,17.6.99,23.65,1.96,5.86,5.58,2.73,9-.17,6.08-5.16,15.78-20.71,19.47-28.08,5.47-10.91,6.36-19.95,16.98-28.22,7.42-5.78,20.47-7.9,27.58-.66.83.84,2.63,4.66,3.49,3.84,11.95-36.99,19.19-75.34,29.68-112.68.81-1.71,4.97-1.51,6.02-.46Zm-47.62,117.43c-3.05-2.75-9.1-.78-12.12,1.32-12.12,8.45-18.18,38.86-12.66,51.9,3.58,8.46,10.67-.99,13.69-5.1,7.18-9.76,14.5-24.63,14.2-36.86-.06-2.68-1.13-9.48-3.12-11.27Z"/>
      <path class="cls-1" d="m457.43,106.48c3.52-.62,7.4,2.4,7.23,6.04-.11,2.37-5.86,11.56-8.57,11.25-2.96-.33-6.51-15.92,1.34-17.3Z"/>
      <path class="cls-1" d="m553.17,106.48c3.52-.62,7.4,2.4,7.23,6.04-.11,2.37-5.86,11.56-8.57,11.25-2.96-.33-6.51-15.92,1.34-17.3Z"/>
    </g>
  </g>
</svg>