<?xml version="1.0" encoding="UTF-8"?>
<svg id="Layer_2" data-name="Layer 2" xmlns="http://www.w3.org/2000/svg" viewBox="0 0 108.55 108.55">
  <defs>
    <style>
      .cls-1 {
        opacity: .7;
      }

      .cls-2 {
        fill: #424753;
        stroke-width: 0px;
      }
    </style>
  </defs>
  <g id="Layer_1-2" data-name="Layer 1">
    <g class="cls-1">
      <path class="cls-2" d="m52.37,29.5h3.81c1.05,0,1.9.86,1.9,1.9s.85,1.9,1.9,1.9,1.9-.85,1.9-1.9c0-3.15-2.56-5.71-5.71-5.71v-1.9c0-1.05-.85-1.9-1.9-1.9s-1.9.85-1.9,1.9v1.9c-3.15,0-5.71,2.56-5.71,5.71v1.9c0,3.15,2.56,5.71,5.71,5.71h3.81c1.05,0,1.9.86,1.9,1.9v1.9c0,1.05-.86,1.9-1.9,1.9h-3.81c-1.05,0-1.9-.86-1.9-1.9s-.85-1.9-1.9-1.9-1.9.85-1.9,1.9c0,3.15,2.56,5.71,5.71,5.71v1.94c0,1.05.85,1.9,1.9,1.9s1.9-.85,1.9-1.9v-1.94c3.15,0,5.71-2.56,5.71-5.71v-1.9c0-3.15-2.56-5.71-5.71-5.71h-3.81c-1.05,0-1.9-.86-1.9-1.9v-1.9c0-1.05.86-1.9,1.9-1.9Z"/>
      <g>
        <path class="cls-2" d="m105.69,74.27c-1.58,0-2.86,1.28-2.86,2.86,0,4.72-3.85,8.57-8.57,8.57H14.28c-4.72,0-8.57-3.85-8.57-8.57,0-1.58-1.28-2.86-2.86-2.86s-2.86,1.28-2.86,2.86c0,7.88,6.41,14.28,14.28,14.28h79.98c7.88,0,14.28-6.41,14.28-14.28,0-1.58-1.28-2.86-2.86-2.86Z"/>
        <path class="cls-2" d="m105.69,91.41c-1.58,0-2.86,1.28-2.86,2.86,0,4.72-3.85,8.57-8.57,8.57H14.28c-4.72,0-8.57-3.85-8.57-8.57,0-1.58-1.28-2.86-2.86-2.86s-2.86,1.28-2.86,2.86c0,7.88,6.41,14.28,14.28,14.28h79.98c7.88,0,14.28-6.41,14.28-14.28,0-1.58-1.28-2.86-2.86-2.86Z"/>
        <path class="cls-2" d="m108.55,14.28c0-7.88-6.41-14.28-14.28-14.28H14.28C6.41,0,0,6.41,0,14.28v45.7c0,7.88,6.41,14.28,14.28,14.28h79.98c7.88,0,14.28-6.41,14.28-14.28V14.28ZM5.71,28.24c11.84-1.34,21.16-10.67,22.5-22.52h52.13c1.34,11.86,10.64,21.23,22.5,22.57v17.71c-11.86,1.34-21.16,10.71-22.5,22.57H28.24c-1.34-11.86-10.67-21.2-22.52-22.53v-17.79Zm97.12-13.95v8.29c-8.71-1.27-15.5-8.14-16.77-16.86h8.2c4.72,0,8.57,3.85,8.57,8.57ZM14.28,5.71h8.23c-1.27,8.71-8.1,15.54-16.8,16.8v-8.23c0-4.72,3.85-8.57,8.57-8.57ZM5.71,59.99v-8.22c8.71,1.27,15.52,8.09,16.79,16.79h-8.22c-4.72,0-8.57-3.85-8.57-8.57Zm88.55,8.57h-8.2c1.27-8.71,8.06-15.59,16.77-16.86v8.29c0,4.72-3.85,8.57-8.57,8.57Z"/>
        <path class="cls-2" d="m54.27,57.13c11.03,0,20-8.97,20-20s-8.97-20-20-20-20,8.97-20,20,8.97,20,20,20Zm0-34.28c7.88,0,14.28,6.41,14.28,14.28s-6.41,14.28-14.28,14.28-14.28-6.41-14.28-14.28,6.41-14.28,14.28-14.28Z"/>
      </g>
    </g>
  </g>
</svg>