<?xml version="1.0" encoding="UTF-8"?>
<svg id="Layer_2" data-name="Layer 2" xmlns="http://www.w3.org/2000/svg" viewBox="0 0 48.55 102.58">
  <defs>
    <style>
      .cls-1 {
        opacity: .7;
      }

      .cls-2 {
        fill: #424753;
        stroke-width: 0px;
      }
    </style>
  </defs>
  <g id="Layer_1-2" data-name="Layer 1">
    <g class="cls-1">
      <path class="cls-2" d="m40.46,0H8.09C3.62,0,0,3.62,0,8.09v89.09c0,2.98,2.42,5.39,5.39,5.39h37.76c2.98,0,5.39-2.42,5.39-5.39V8.09c0-4.47-3.62-8.09-8.09-8.09Zm-24.28,97.18v-16.18h16.18v16.18h-16.18Zm21.58,0v-16.18c0-2.98-2.42-5.39-5.39-5.39h-16.18c-2.98,0-5.39,2.42-5.39,5.39v16.18h-5.39V8.09c0-1.49,1.21-2.7,2.7-2.7h32.37c1.49,0,2.7,1.21,2.7,2.7v89.09h-5.39Z"/>
      <path class="cls-2" d="m32.37,62.12h-16.18c-1.49,0-2.7,1.21-2.7,2.7s1.21,2.7,2.7,2.7h16.18c1.49,0,2.7-1.21,2.7-2.7s-1.21-2.7-2.7-2.7Z"/>
      <path class="cls-2" d="m32.37,49.81h-16.18c-1.49,0-2.7,1.21-2.7,2.7s1.21,2.7,2.7,2.7h16.18c1.49,0,2.7-1.21,2.7-2.7s-1.21-2.7-2.7-2.7Z"/>
      <path class="cls-2" d="m32.37,37.51h-16.18c-1.49,0-2.7,1.21-2.7,2.7s1.21,2.7,2.7,2.7h16.18c1.49,0,2.7-1.21,2.7-2.7s-1.21-2.7-2.7-2.7Z"/>
      <path class="cls-2" d="m32.37,25.21h-16.18c-1.49,0-2.7,1.21-2.7,2.7s1.21,2.7,2.7,2.7h16.18c1.49,0,2.7-1.21,2.7-2.7s-1.21-2.7-2.7-2.7Z"/>
      <path class="cls-2" d="m32.37,12.91h-16.18c-1.49,0-2.7,1.21-2.7,2.7s1.21,2.7,2.7,2.7h16.18c1.49,0,2.7-1.21,2.7-2.7s-1.21-2.7-2.7-2.7Z"/>
    </g>
  </g>
</svg>