<?xml version="1.0" encoding="UTF-8"?>
<svg id="Layer_2" data-name="Layer 2" xmlns="http://www.w3.org/2000/svg" viewBox="0 0 119.98 102.84">
  <defs>
    <style>
      .cls-1 {
        opacity: .7;
      }

      .cls-2 {
        fill: #424753;
        stroke-width: 0px;
      }
    </style>
  </defs>
  <g id="Layer_1-2" data-name="Layer 1">
    <g class="cls-1">
      <path class="cls-2" d="m86.53,35.11c-.53.53-.84,1.26-.84,2.01s.31,1.49.84,2.02c.53.53,1.26.83,2.01.83s1.49-.3,2.02-.83c.53-.53.83-1.27.83-2.02s-.3-1.49-.83-2.01c-1.05-1.07-2.98-1.06-4.03,0Z"/>
      <path class="cls-2" d="m111.41,34.28h-5.65c-1.41-3.51-3.34-6.85-5.77-9.96V2.86c0-1.01-.53-1.94-1.4-2.46-.87-.51-1.94-.54-2.83-.05l-16.4,8.96c-6.17-2.39-12.68-3.59-19.37-3.59-25.68,0-46.72,17.7-48.4,39.99h-3.02c-1.57,0-2.86-1.28-2.86-2.86v-5.71c0-1.58-1.28-2.86-2.86-2.86s-2.86,1.28-2.86,2.86v5.71c0,4.72,3.85,8.57,8.57,8.57h3.01c.72,9.58,5.02,18.63,12.38,25.82l4.2,21.01c.53,2.66,2.89,4.59,5.6,4.59h11.94c3.15,0,5.71-2.56,5.71-5.71v-6.42c3.88.63,7.73.85,11.43.61v5.81c0,3.15,2.56,5.71,5.71,5.71h11.94c2.71,0,5.07-1.93,5.6-4.59l3.12-15.61c5.71-3.82,10.4-8.65,13.67-14.08h8.51c4.72,0,8.57-3.85,8.57-8.57v-17.14c0-4.72-3.85-8.57-8.57-8.57Zm2.86,25.71c0,1.57-1.28,2.86-2.86,2.86h-10.17c-1.05,0-2.01.57-2.51,1.49-3,5.52-7.7,10.41-13.6,14.16-.66.42-1.12,1.09-1.27,1.85l-3.36,16.78h-11.94v-8.93c0-.81-.35-1.59-.95-2.13-.61-.54-1.41-.8-2.22-.71-5.18.57-10.66.36-16.2-.89-.85-.19-1.73.01-2.41.55-.68.54-1.07,1.36-1.07,2.23v9.88h-11.94l-4.38-21.89c-.12-.58-.41-1.12-.84-1.52-7.35-6.9-11.4-15.83-11.4-25.15,0-20.48,19.22-37.14,42.85-37.14,6.47,0,12.75,1.26,18.66,3.75,1.07.45,2.23.16,3.01-.62l12.61-6.89v16.62c-.29.9-.12,1.91.52,2.69,2.83,3.41,4.94,7.14,6.28,11.08.39,1.16,1.48,1.94,2.7,1.94h7.63c1.57,0,2.86,1.28,2.86,2.86v17.14Z"/>
      <path class="cls-2" d="m66.03,20.26c-1.49-.17-2.99-.26-4.51-.26-11.66,0-22.34,5-28.55,13.38-.94,1.27-.68,3.06.59,4,.51.38,1.11.56,1.7.56.87,0,1.74-.4,2.29-1.16,5.15-6.93,14.1-11.07,23.96-11.07,1.3,0,2.58.07,3.85.22,1.59.2,2.98-.94,3.16-2.51.18-1.57-.94-2.98-2.5-3.16Z"/>
    </g>
  </g>
</svg>