<?xml version="1.0" encoding="UTF-8"?>
<svg id="Layer_2" data-name="Layer 2" xmlns="http://www.w3.org/2000/svg" viewBox="0 0 77.52 148.95">
  <defs>
    <style>
      .cls-1 {
        opacity: .7;
      }

      .cls-2 {
        fill: #424753;
        stroke-width: 0px;
      }
    </style>
  </defs>
  <g id="Layer_1-2" data-name="Layer 1">
    <g class="cls-1">
      <path class="cls-2" d="m52.06,49.01c0-1.42-1.15-2.57-2.57-2.57h-21.47c-1.42,0-2.57,1.15-2.57,2.57v8.17h26.6v-8.17Z"/>
      <path class="cls-2" d="m76.88,88.67l-23.4-26.36h-29.43L.65,88.67c-.94,1.06-.84,2.68.22,3.63.47.42,1.08.65,1.7.65h72.39c1.42,0,2.57-1.15,2.57-2.57,0-.63-.23-1.23-.65-1.7Z"/>
      <path class="cls-2" d="m53.73,100.11v-2.03h-29.94v2.03c-.03,8.27,6.64,15,14.91,15.03,8.27.03,15-6.64,15.03-14.91,0-.04,0-.08,0-.12h0Z"/>
      <path class="cls-2" d="m41.33,2.58C41.34,1.17,40.2,0,38.78,0c-1.42,0-2.58,1.13-2.58,2.55,0,.01,0,.02,0,.03v38.72h5.14V2.58Z"/>
      <path class="cls-2" d="m70.42,130.7c-17.48,17.48-45.83,17.48-63.31,0-1-1-2.63-1-3.63,0-1,1-1,2.63,0,3.63,19.49,19.48,51.07,19.48,70.56,0,1-1,1.01-2.63,0-3.63-1-1-2.63-1.01-3.63,0Z"/>
      <path class="cls-2" d="m15.45,118.74c-1,1-1,2.63,0,3.63h0c12.84,12.88,33.69,12.91,46.56.07.02-.02.05-.05.07-.07,1-1,1-2.63,0-3.63-1-1-2.63-1-3.63,0-10.83,10.87-28.43,10.9-39.3.07-.02-.02-.05-.05-.07-.07-1-1-2.63-1-3.63,0,0,0,0,0,0,0Z"/>
    </g>
  </g>
</svg>