<?xml version="1.0" encoding="UTF-8"?>
<svg id="Layer_2" data-name="Layer 2" xmlns="http://www.w3.org/2000/svg" viewBox="0 0 140.01 140.01">
  <defs>
    <style>
      .cls-1 {
        opacity: .7;
      }

      .cls-2 {
        fill: #424753;
        stroke-width: 0px;
      }
    </style>
  </defs>
  <g id="Layer_1-2" data-name="Layer 1">
    <g class="cls-1">
      <path class="cls-2" d="m129.07,83.13c-2.47,0-4.73.85-6.56,2.25v-7.66c0-5.47-4.44-9.91-9.91-9.91h-34.87c-3.13,0-5.91,1.49-7.72,3.78-1.82-2.3-4.59-3.78-7.72-3.78H27.41c-5.47,0-9.91,4.44-9.91,9.91v7.66c-1.84-1.4-4.09-2.25-6.56-2.25V20.78c0-9.06,7.35-16.41,16.41-16.41s15.88,6.87,16.36,15.49c-7.39,1.09-13.08,7.46-13.08,15.14,0,1.2.98,2.19,2.19,2.19h26.25c1.2,0,2.19-.98,2.19-2.19,0-7.72-5.73-14.09-13.17-15.14C47.58,8.82,38.48,0,27.35,0S6.56,9.32,6.56,20.78v63.27c-3.85,1.71-6.56,5.53-6.56,10.02v26.25c0,6.04,4.9,10.94,10.94,10.94h6.56v6.56c0,1.2.98,2.19,2.19,2.19h6.56c.83,0,1.58-.46,1.95-1.2l3.76-7.55h76.07l3.76,7.55c.39.74,1.14,1.2,1.97,1.2h6.56c.59,0,1.14-.24,1.55-.63s.63-.96.63-1.55v-6.56h6.56c6.04,0,10.94-4.9,10.94-10.94v-26.25c0-6.04-4.9-10.94-10.94-10.94ZM56.66,32.82h-21.44c1.01-4.99,5.43-8.75,10.72-8.75s9.69,3.76,10.72,8.75Zm-26.03,94.07h-11c1.38-1.84,2.25-4.09,2.25-6.56v-4.38h96.26v4.38c0,2.47.85,4.73,2.25,6.56H30.63Zm-8.47-15.31c.96-3.76,4.4-6.56,8.47-6.56h28.44c4.07,0,7.5,2.8,8.47,6.56H22.16Zm50.32,0c.96-3.76,4.4-6.56,8.47-6.56h28.44c4.07,0,7.5,2.8,8.47,6.56h-45.37Zm5.25-39.38h34.87c3.04,0,5.53,2.49,5.53,5.53v26.27c-2.32-2.08-5.38-3.37-8.75-3.37h-28.44c-3.37,0-6.43,1.29-8.75,3.37v-26.27c0-3.04,2.47-5.53,5.53-5.53Zm-55.85,5.53c0-3.06,2.47-5.53,5.53-5.53h34.87c3.04,0,5.53,2.49,5.53,5.53v26.27c-2.32-2.08-5.38-3.37-8.75-3.37h-28.44c-3.37,0-6.43,1.29-8.75,3.37v-26.27ZM4.38,120.32v-26.25c0-3.61,2.95-6.56,6.56-6.56s6.56,2.95,6.56,6.56v26.25c0,3.61-2.95,6.56-6.56,6.56s-6.56-2.95-6.56-6.56Zm20.52,15.31h-3.02v-4.38h5.21l-2.19,4.38Zm93.24-4.38v4.38h-3.02l-2.19-4.38h5.21Zm17.5-10.94c0,3.61-2.95,6.56-6.56,6.56s-6.56-2.95-6.56-6.56v-26.25c0-3.61,2.95-6.56,6.56-6.56s6.56,2.95,6.56,6.56v26.25Z"/>
      <path class="cls-2" d="m30.63,83.24c1.2,0,2.3-1.09,2.3-2.3s-1.09-2.3-2.3-2.3-2.3,1.09-2.3,2.3,1.09,2.3,2.3,2.3Z"/>
      <path class="cls-2" d="m45.94,83.24c1.2,0,2.3-1.09,2.3-2.3s-1.09-2.3-2.3-2.3-2.3,1.09-2.3,2.3,1.09,2.3,2.3,2.3Z"/>
      <path class="cls-2" d="m59.07,83.24c1.2,0,2.3-1.09,2.3-2.3s-1.09-2.3-2.3-2.3-2.3,1.09-2.3,2.3,1.09,2.3,2.3,2.3Z"/>
      <path class="cls-2" d="m30.63,94.18c1.2,0,2.3-1.09,2.3-2.3s-1.09-2.3-2.3-2.3-2.3,1.09-2.3,2.3,1.09,2.3,2.3,2.3Z"/>
      <path class="cls-2" d="m45.94,94.18c1.2,0,2.3-1.09,2.3-2.3s-1.09-2.3-2.3-2.3-2.3,1.09-2.3,2.3,1.09,2.3,2.3,2.3Z"/>
      <path class="cls-2" d="m59.07,94.18c1.2,0,2.3-1.09,2.3-2.3s-1.09-2.3-2.3-2.3-2.3,1.09-2.3,2.3,1.09,2.3,2.3,2.3Z"/>
      <path class="cls-2" d="m80.94,83.24c1.2,0,2.3-1.09,2.3-2.3s-1.09-2.3-2.3-2.3-2.3,1.09-2.3,2.3,1.09,2.3,2.3,2.3Z"/>
      <path class="cls-2" d="m96.26,83.24c1.2,0,2.3-1.09,2.3-2.3s-1.09-2.3-2.3-2.3-2.3,1.09-2.3,2.3,1.09,2.3,2.3,2.3Z"/>
      <path class="cls-2" d="m109.38,83.24c1.2,0,2.3-1.09,2.3-2.3s-1.09-2.3-2.3-2.3-2.3,1.09-2.3,2.3,1.09,2.3,2.3,2.3Z"/>
      <path class="cls-2" d="m80.94,94.18c1.2,0,2.3-1.09,2.3-2.3s-1.09-2.3-2.3-2.3-2.3,1.09-2.3,2.3,1.09,2.3,2.3,2.3Z"/>
      <path class="cls-2" d="m96.26,94.18c1.2,0,2.3-1.09,2.3-2.3s-1.09-2.3-2.3-2.3-2.3,1.09-2.3,2.3,1.09,2.3,2.3,2.3Z"/>
      <path class="cls-2" d="m109.38,94.18c1.2,0,2.3-1.09,2.3-2.3s-1.09-2.3-2.3-2.3-2.3,1.09-2.3,2.3,1.09,2.3,2.3,2.3Z"/>
      <path class="cls-2" d="m74.38,45.94h63.44c1.2,0,2.19-.98,2.19-2.19V2.19c0-1.2-.98-2.19-2.19-2.19h-63.44c-1.2,0-2.19.98-2.19,2.19v41.57c0,1.2.98,2.19,2.19,2.19Zm52.5-13.13h-41.57V13.13h41.57v19.69Zm-42.86,4.38h44.13l4.38,4.38h-52.88l4.38-4.38Zm47.23-3.08V11.84l4.38-4.38v31l-4.38-4.35Zm-3.11-25.36h-44.13l-4.38-4.38h52.88l-4.38,4.38Zm-47.21,3.08v22.25l-4.38,4.38V7.46l4.38,4.38Z"/>
    </g>
  </g>
</svg>