<?xml version="1.0" encoding="UTF-8"?>
<svg id="Layer_2" data-name="Layer 2" xmlns="http://www.w3.org/2000/svg" viewBox="0 0 597.9 656.96">
  <defs>
    <style>
      .cls-1 {
        fill: #606060;
        stroke-width: 0px;
      }
    </style>
  </defs>
  <g id="Layer_1-2" data-name="Layer 1">
    <g>
      <path class="cls-1" d="m356.27,471.19c-.36-26.67-5.21-39.86,20.59-53.76,41.53-22.37,164-22.78,203.3,4.5,9.9,6.87,13.32,10.81,14.77,23.26,4.32,36.93,3.54,124.94.09,162.74-1.41,15.47-5.1,21.82-18.47,29.94-38.07,23.1-126.16,21.92-169.1,12.09-9.63-2.2-35.74-15-39.06-15s-29.43,12.8-39.06,15c-40.97,9.38-95.26,9.3-136.24,0-18.05-4.09-48.61-14.49-51.35-35.09-3.01-22.65-2.58-91.18.11-114.36,2.42-20.87,21-28.02,38.87-33.74,53.16-17,122.65-11.83,175.55,4.41Zm210.92-31.06c-38.7-13.15-82.05-17.08-122.87-14.01-5.58.42-70.7,11.66-63.82,20.84,34.73,14.32,74.8,19.38,112.5,17.48,15.2-.77,56.93-6.37,68.53-14.45,4.09-2.86,6.88-3.97,5.66-9.85Zm3.45,34.55c-62.32,18.7-127.71,19.08-190.12,0,.99,8.42-3.27,23.81,3.42,29.39,25.2,21,154.18,21.19,179.68-.13,10.23-8.55,6.95-16.96,7.02-29.26Zm-342.99,7.92c-8.88.86-61.43,9.73-61.45,18,19.53,27.7,186.42,21.81,186.57,0-34.39-21.19-85.59-21.84-125.12-18Zm128.62,47.41c-60.96,19.21-129.12,19.96-190.12,0,.9,8.76-3.12,23.11,3.34,29.47,21.19,20.84,162.09,21.03,183.43,0,6.46-6.37,2.44-20.7,3.34-29.47Zm214.37,0c-60.96,19.21-129.12,19.96-190.12,0,1.02,10.21-4.16,23.85,5.46,30.81,25.76,18.62,159.23,20.42,181.32-1.34,6.46-6.37,2.44-20.7,3.34-29.47Zm-214.36,55.32c-58.92,20.07-131.4,20.34-190.11-.02-.07,20.1-5.13,26.97,14.88,35.22,36.02,14.86,118.37,14.48,155.28,1.85,23.09-7.9,21.21-12.93,19.96-37.05Zm214.37,0c-58.92,20.07-131.4,20.34-190.11-.02-.07,20.11-5.13,26.97,14.88,35.22,34.45,14.21,120.05,13.91,155.28,1.85,23.09-7.9,21.21-12.93,19.96-37.05Z"/>
      <path class="cls-1" d="m487.68,377.85h-24.2v-169.42h-171.15c-.61,0-8.64-8.03-8.64-8.64V28.64H24.37v565.31l5.19,5.19h88.17v24.2H12.27c-.97,0-9.43-5.36-10.37-6.92L0,16.37,3.42,5.96C15.56,4.5,27.66,1.1,39.92.64c62.2-2.36,134.21,2.48,197.46,3.45,20.55.31,41.81-7.91,64.42,1.25l185.88,187.53v184.98Zm-44.95-193.62L307.89,45.92v138.3h134.84Z"/>
      <path class="cls-1" d="m159.23,97.77l.34,23.88,47.99,19.35-15.72,22.69c-18.6-13.15-69.8-23.9-76.81,5.71-11.74,49.56,49.21,36.82,77.05,56.3,30.86,21.6,28.76,77.32-3.98,96.32-17.15,9.96-34.14,1.78-28.87,31.65h-27.7c6.25-29.15-17.87-24.5-37.73-36.62-22.9-13.97-20.74-16.66-1.59-35.75,22.41,21.39,86.4,36.38,91.11-5.79,5.84-52.25-85.9-18.65-98.69-73.76-8.89-38.27,6.73-69.95,45.33-79.61l1.57-24.37h27.69Z"/>
    </g>
  </g>
</svg>