<?xml version="1.0" encoding="UTF-8"?>
<svg id="Layer_2" data-name="Layer 2" xmlns="http://www.w3.org/2000/svg" viewBox="0 0 188.39 27.17">
  <defs>
    <style>
      .cls-1 {
        fill: #fff;
        stroke-width: 0px;
      }
    </style>
  </defs>
  <g id="Layer_1-2" data-name="Layer 1">
    <g>
      <path class="cls-1" d="m13.31,17.45l-1.56-1.4c-1.2.77-2.64,1.22-4.22,1.22-4.38,0-7.53-3.27-7.53-7.31v-.04C0,5.88,3.19,2.57,7.57,2.57s7.53,3.27,7.53,7.31v.04c0,1.48-.45,2.9-1.26,4.08l1.46,1.24-1.99,2.21Zm-1.48-7.53c0-2.44-1.79-4.47-4.3-4.47s-4.26,1.99-4.26,4.42v.04c0,2.44,1.79,4.46,4.3,4.46.69,0,1.32-.14,1.87-.39l-2.31-1.97,1.99-2.23,2.33,2.11c.26-.59.39-1.24.39-1.95v-.04Z"/>
      <path class="cls-1" d="m23.81,17.24c-3.82,0-6.15-2.13-6.15-6.31V2.81h3.13v8.04c0,2.31,1.16,3.51,3.06,3.51s3.06-1.16,3.06-3.41V2.81h3.13v8.02c0,4.3-2.42,6.41-6.23,6.41Z"/>
      <path class="cls-1" d="m57.4,17.02l-1.3-3.19h-6.01l-1.3,3.19h-3.19l6.09-14.31h2.88l6.09,14.31h-3.27Zm-4.3-10.55l-1.89,4.61h3.77l-1.89-4.61Z"/>
      <path class="cls-1" d="m71.48,17.02l-3.04-4.55h-2.46v4.55h-3.13V2.81h6.49c3.35,0,5.36,1.77,5.36,4.69v.04c0,2.29-1.24,3.73-3.04,4.4l3.47,5.07h-3.65Zm.06-9.36c0-1.34-.93-2.03-2.46-2.03h-3.1v4.08h3.17c1.52,0,2.4-.81,2.4-2.01v-.04Z"/>
      <path class="cls-1" d="m88.1,17.02l-1.3-3.19h-6.01l-1.3,3.19h-3.19l6.09-14.31h2.88l6.09,14.31h-3.27Zm-4.3-10.55l-1.89,4.61h3.77l-1.89-4.61Z"/>
      <path class="cls-1" d="m108.89,17.02c-4.32,0-7.23-3.39-7.23-7.33s2.94-7.37,7.27-7.37,7.23,3.39,7.23,7.33-2.94,7.37-7.27,7.37Zm0-13.21c-3.25,0-5.56,2.6-5.56,5.85s2.35,5.89,5.6,5.89,5.56-2.6,5.56-5.85-2.35-5.89-5.6-5.89Z"/>
      <path class="cls-1" d="m129.33,16.78l-4.12-5.52h-4.06v5.52h-1.6V2.57h6.11c3.13,0,5.13,1.68,5.13,4.24,0,2.37-1.62,3.75-3.86,4.16l4.36,5.8h-1.97Zm-3.8-12.73h-4.38v5.76h4.36c2.13,0,3.65-1.1,3.65-2.94s-1.34-2.82-3.63-2.82Z"/>
      <path class="cls-1" d="m144.49,4.03h-8.67v4.85h7.75v1.46h-7.75v4.97h8.77v1.46h-10.37V2.57h10.27v1.46Z"/>
      <path class="cls-1" d="m158.51,2.57h1.73l-6.11,14.31h-1.42l-6.11-14.31h1.79l5.05,12.24,5.07-12.24Z"/>
      <path class="cls-1" d="m173.31,4.03h-8.67v4.85h7.75v1.46h-7.75v4.97h8.77v1.46h-10.37V2.57h10.27v1.46Z"/>
      <path class="cls-1" d="m186.42,16.78l-4.12-5.52h-4.06v5.52h-1.6V2.57h6.11c3.13,0,5.13,1.68,5.13,4.24,0,2.37-1.62,3.75-3.86,4.16l4.36,5.8h-1.97Zm-3.8-12.73h-4.38v5.76h4.36c2.13,0,3.65-1.1,3.65-2.94s-1.34-2.82-3.63-2.82Z"/>
      <polygon class="cls-1" points="96.72 19.85 88.27 0 87.58 0 96.03 19.85 96.72 19.85"/>
      <g>
        <polygon class="cls-1" points="92.53 10.59 98.58 10.59 98.58 9.13 91.91 9.13 92.53 10.59"/>
        <polygon class="cls-1" points="89.29 2.57 89.29 3 90.89 6.74 90.89 4.05 99.49 4.05 99.49 2.57 89.29 2.57"/>
      </g>
      <g>
        <polygon class="cls-1" points="38.21 5.59 38.21 5.59 43.94 5.59 43.94 2.81 33.22 2.81 33.22 5.59 38.21 5.59"/>
        <polygon class="cls-1" points="38.21 14.24 36.33 14.24 33.22 14.24 33.22 17.02 44.04 17.02 44.04 14.24 38.21 14.24"/>
        <polygon class="cls-1" points="43.03 8.48 38.21 8.48 38.21 8.48 33.22 8.48 33.22 11.26 36.33 11.26 36.33 11.26 43.03 11.26 43.03 8.48"/>
      </g>
      <g>
        <path class="cls-1" d="m108.91,22.39h.53v4.22h2.65v.49h-3.18v-4.71Z"/>
        <path class="cls-1" d="m118.67,25.08c0,1.37-.79,2.08-1.96,2.08s-1.96-.71-1.96-2.04v-2.74h.53v2.7c0,1.02.54,1.59,1.44,1.59s1.42-.52,1.42-1.55v-2.74h.53v2.7Z"/>
        <path class="cls-1" d="m125,27.09l-1.51-2.02-1.51,2.02h-.61l1.81-2.4-1.74-2.31h.63l1.45,1.92,1.43-1.92h.62l-1.74,2.3,1.81,2.41h-.63Z"/>
        <path class="cls-1" d="m132.27,25.08c0,1.37-.79,2.08-1.96,2.08s-1.96-.71-1.96-2.04v-2.74h.53v2.7c0,1.02.54,1.59,1.44,1.59s1.42-.52,1.42-1.55v-2.74h.53v2.7Z"/>
        <path class="cls-1" d="m138.65,27.09l-1.36-1.83h-1.34v1.83h-.53v-4.71h2.02c1.04,0,1.7.56,1.7,1.41,0,.79-.54,1.24-1.28,1.38l1.45,1.92h-.65Zm-1.26-4.22h-1.45v1.91h1.45c.71,0,1.21-.36,1.21-.97s-.44-.93-1.2-.93Z"/>
        <path class="cls-1" d="m143.99,27.09h-.54v-1.86l-1.96-2.84h.65l1.59,2.35,1.6-2.35h.62l-1.96,2.84v1.87Z"/>
        <path class="cls-1" d="m156.48,22.39h.53v4.22h2.65v.49h-3.18v-4.71Z"/>
        <path class="cls-1" d="m163.1,22.39v4.71h-.53v-4.71h.53Z"/>
        <path class="cls-1" d="m169.9,22.39h.57l-2.02,4.74h-.47l-2.02-4.74h.59l1.67,4.05,1.68-4.05Z"/>
        <path class="cls-1" d="m173.86,22.39v4.71h-.53v-4.71h.53Z"/>
        <path class="cls-1" d="m180.58,22.39h.52v4.71h-.42l-3.04-3.86v3.86h-.52v-4.71h.5l2.96,3.77v-3.77Z"/>
        <path class="cls-1" d="m186.5,27.17c-1.48,0-2.39-1.08-2.39-2.43s.95-2.44,2.36-2.44c.79,0,1.28.23,1.76.63l-.34.4c-.36-.32-.77-.54-1.43-.54-1.04,0-1.79.88-1.79,1.94,0,1.13.72,1.96,1.86,1.96.54,0,1.04-.21,1.36-.47v-1.17h-1.43v-.48h1.94v1.88c-.44.39-1.1.72-1.89.72Z"/>
      </g>
    </g>
  </g>
</svg>