<?xml version="1.0" encoding="UTF-8"?>
<svg id="Layer_2" data-name="Layer 2" xmlns="http://www.w3.org/2000/svg" viewBox="0 0 219.44 31.65">
  <defs>
    <style>
      .cls-1 {
        fill: #231f20;
      }

      .cls-1, .cls-2 {
        stroke-width: 0px;
      }

      .cls-2 {
        fill: #010101;
      }
    </style>
  </defs>
  <g id="Layer_1-2" data-name="Layer 1">
    <g>
      <path class="cls-2" d="m15.51,20.32l-1.82-1.63c-1.39.9-3.07,1.42-4.92,1.42C3.66,20.11,0,16.3,0,11.6v-.05C0,6.85,3.71,2.99,8.82,2.99s8.77,3.81,8.77,8.51v.05c0,1.73-.52,3.38-1.47,4.75l1.7,1.44-2.32,2.58Zm-1.73-8.77c0-2.84-2.08-5.2-5.01-5.2s-4.96,2.32-4.96,5.15v.05c0,2.84,2.08,5.2,5.01,5.2.8,0,1.54-.17,2.18-.45l-2.69-2.29,2.32-2.6,2.72,2.46c.31-.69.45-1.44.45-2.27v-.05Z"/>
      <path class="cls-2" d="m27.73,20.09c-4.44,0-7.16-2.48-7.16-7.35V3.28h3.64v9.36c0,2.7,1.35,4.09,3.57,4.09s3.57-1.35,3.57-3.97V3.28h3.64v9.34c0,5.01-2.81,7.47-7.26,7.47Z"/>
      <path class="cls-2" d="m66.86,19.83l-1.51-3.71h-7l-1.51,3.71h-3.71l7.09-16.67h3.36l7.09,16.67h-3.81Zm-5.01-12.29l-2.2,5.37h4.4l-2.2-5.37Z"/>
      <path class="cls-2" d="m83.26,19.83l-3.55-5.3h-2.86v5.3h-3.64V3.28h7.56c3.9,0,6.24,2.06,6.24,5.46v.05c0,2.67-1.44,4.35-3.55,5.13l4.04,5.91h-4.26Zm.07-10.9c0-1.56-1.09-2.36-2.86-2.36h-3.62v4.75h3.69c1.77,0,2.79-.95,2.79-2.34v-.05Z"/>
      <path class="cls-2" d="m102.62,19.83l-1.51-3.71h-7l-1.51,3.71h-3.71l7.09-16.67h3.36l7.09,16.67h-3.81Zm-5.01-12.29l-2.2,5.37h4.4l-2.2-5.37Z"/>
      <path class="cls-2" d="m126.84,19.83c-5.04,0-8.42-3.95-8.42-8.53s3.43-8.58,8.46-8.58,8.42,3.95,8.42,8.53-3.43,8.58-8.46,8.58Zm0-15.39c-3.78,0-6.48,3.03-6.48,6.81s2.74,6.86,6.52,6.86,6.48-3.03,6.48-6.81-2.74-6.86-6.52-6.86Z"/>
      <path class="cls-2" d="m150.64,19.54l-4.8-6.43h-4.73v6.43h-1.87V2.99h7.12c3.64,0,5.98,1.96,5.98,4.94,0,2.77-1.89,4.37-4.49,4.85l5.08,6.76h-2.29Zm-4.42-14.82h-5.11v6.71h5.08c2.48,0,4.26-1.28,4.26-3.43s-1.56-3.29-4.23-3.29Z"/>
      <path class="cls-2" d="m168.3,4.7h-10.09v5.65h9.03v1.7h-9.03v5.79h10.21v1.7h-12.08V2.99h11.96v1.7Z"/>
      <path class="cls-2" d="m184.64,2.99h2.01l-7.12,16.67h-1.65l-7.12-16.67h2.08l5.89,14.26,5.91-14.26Z"/>
      <path class="cls-2" d="m201.87,4.7h-10.09v5.65h9.03v1.7h-9.03v5.79h10.21v1.7h-12.08V2.99h11.96v1.7Z"/>
      <path class="cls-2" d="m217.15,19.54l-4.8-6.43h-4.73v6.43h-1.87V2.99h7.12c3.64,0,5.98,1.96,5.98,4.94,0,2.77-1.89,4.37-4.49,4.85l5.08,6.76h-2.29Zm-4.42-14.82h-5.11v6.71h5.08c2.48,0,4.26-1.28,4.26-3.43s-1.56-3.29-4.23-3.29Z"/>
      <polygon class="cls-2" points="112.66 23.12 102.82 0 102.02 0 111.85 23.12 112.66 23.12"/>
      <g>
        <polygon class="cls-2" points="107.79 12.33 114.83 12.33 114.83 10.63 107.06 10.63 107.79 12.33"/>
        <polygon class="cls-2" points="104 2.99 104 3.49 105.87 7.85 105.87 4.72 115.89 4.72 115.89 2.99 104 2.99"/>
      </g>
      <g>
        <polygon class="cls-2" points="44.51 6.52 44.51 6.52 51.18 6.52 51.18 3.28 38.7 3.28 38.7 6.52 44.51 6.52"/>
        <polygon class="cls-2" points="44.51 16.59 42.32 16.59 38.7 16.59 38.7 19.83 51.3 19.83 51.3 16.59 44.51 16.59"/>
        <polygon class="cls-2" points="50.12 9.87 44.51 9.87 44.51 9.87 38.7 9.87 38.7 13.11 42.32 13.11 42.32 13.11 50.12 13.11 50.12 9.87"/>
      </g>
      <g>
        <path class="cls-1" d="m126.86,26.08h.62v4.91h3.09v.57h-3.7v-5.48Z"/>
        <path class="cls-1" d="m138.22,29.22c0,1.6-.92,2.43-2.29,2.43s-2.28-.83-2.28-2.38v-3.19h.62v3.15c0,1.18.63,1.85,1.68,1.85s1.65-.61,1.65-1.81v-3.19h.62v3.14Z"/>
        <path class="cls-1" d="m145.61,31.56l-1.75-2.36-1.75,2.36h-.71l2.11-2.8-2.03-2.69h.73l1.68,2.24,1.67-2.24h.72l-2.03,2.68,2.11,2.8h-.74Z"/>
        <path class="cls-1" d="m154.07,29.22c0,1.6-.92,2.43-2.29,2.43s-2.28-.83-2.28-2.38v-3.19h.62v3.15c0,1.18.63,1.85,1.68,1.85s1.65-.61,1.65-1.81v-3.19h.62v3.14Z"/>
        <path class="cls-1" d="m161.5,31.56l-1.59-2.13h-1.57v2.13h-.62v-5.48h2.36c1.21,0,1.98.65,1.98,1.64,0,.92-.63,1.45-1.49,1.61l1.68,2.24h-.76Zm-1.46-4.91h-1.69v2.22h1.68c.82,0,1.41-.42,1.41-1.14s-.52-1.09-1.4-1.09Z"/>
        <path class="cls-1" d="m167.73,31.56h-.63v-2.17l-2.28-3.31h.75l1.85,2.74,1.86-2.74h.72l-2.28,3.3v2.18Z"/>
        <path class="cls-1" d="m182.27,26.08h.62v4.91h3.09v.57h-3.7v-5.48Z"/>
        <path class="cls-1" d="m189.98,26.08v5.48h-.62v-5.48h.62Z"/>
        <path class="cls-1" d="m197.91,26.08h.67l-2.36,5.52h-.55l-2.36-5.52h.69l1.95,4.72,1.96-4.72Z"/>
        <path class="cls-1" d="m202.52,26.08v5.48h-.62v-5.48h.62Z"/>
        <path class="cls-1" d="m210.35,26.08h.6v5.48h-.49l-3.54-4.5v4.5h-.6v-5.48h.58l3.45,4.39v-4.39Z"/>
        <path class="cls-1" d="m217.24,31.65c-1.72,0-2.79-1.25-2.79-2.83s1.1-2.84,2.75-2.84c.92,0,1.5.27,2.04.73l-.4.47c-.42-.37-.89-.63-1.67-.63-1.21,0-2.08,1.03-2.08,2.26,0,1.32.84,2.29,2.17,2.29.63,0,1.21-.24,1.58-.55v-1.36h-1.67v-.56h2.26v2.19c-.51.45-1.28.84-2.2.84Z"/>
      </g>
    </g>
  </g>
</svg>