<?xml version="1.0" encoding="UTF-8"?>
<svg id="Layer_2" data-name="Layer 2" xmlns="http://www.w3.org/2000/svg" viewBox="0 0 189 92.96">
  <defs>
    <style>
      .cls-1 {
        stroke: #231f20;
        stroke-miterlimit: 10;
        stroke-width: .47px;
      }

      .cls-1, .cls-2 {
        fill: #010101;
      }

      .cls-3 {
        fill: #231f20;
      }

      .cls-3, .cls-2 {
        stroke-width: 0px;
      }
    </style>
  </defs>
  <g id="Layer_1-2" data-name="Layer 1">
    <g>
      <path class="cls-2" d="m58.05,31.64c-.12-.37-.42-.64-.69-.84l-.82-.63c-.54-.42-1.08-.84-1.62-1.27-.48-.35-.95-.83-.96-1.43.03,0,.06-.01.09-.02.11-.04.3-.15.28-.48-.02-.63-.54-1.14-1.2-1.18-.05,0-.1,0-.15,0-.45,0-.81.12-1.12.31.65-1.35,1.27-2.82.43-3.74-.26-.28-.59-.38-.89-.27-.25.09-.44.32-.51.59-.24-.1-.57-.23-.57-.23-.27-.1-.56-.22-.29-.52l.54-.72c.27-.38.44-.82.5-1.29.27-1.44-.52-2-1.77-2.34-1.16-.36-2.38-.55-3.59-.54-.9-.03-1.76.24-2.65.2-.84-.05-1.6-.43-2.17-1.04-.34-.32-.61-.71-.88-1.09,3.67-1.97,7.36-4.33,5.81-10.12-.44-1.5-1.13-2.93-1.92-4.28.44.94.9,1.88,1.22,2.86.85,2.36,1.13,5.19-.44,7.29-1.3,1.74-3.16,2.74-5.05,3.72-.22-.3-.45-.58-.74-.82-2.85-2.41-6.48-3.82-10.18-4.21.08-.84.2-2.06.26-2.66.15-1.47.3-2.95.14-4.45-.12-1.7-1.13-3.28-2.87-1.95-.91.73-1.47,1.82-2.05,2.78-1.2,2.02-2.3,4.42-2.89,6.87-2.34.62-4.59,1.61-6.66,2.85-4.25,2.47-7.2,6.36-9.35,10.69C1.93,27.61,0,32.76,0,37.91c.03,1.49.27,3.01.87,4.39.55,1.36,1.23,2.69,2.14,3.89,2.78,3.76,6.8,3.88,9.77.29,3.26-4.1,3.99-9.72,3.18-14.76-.33-1.57-.53-3.55-2.54-3.69-1.12-.09-2.22.73-2.41,1.85-.02.08-.04.19-.05.28-.37,2.07-1.17,5.44-3.23,6.36-1.28.47-2.2-.92-2.54-2.03-.64-2-.52-4.16-.21-6.23.16-1.19.6-2.76.9-3.8,1.42-1.68,3.12-3.07,5.05-3.99,3.82-1.84,8.48-1.3,10.93,2.4,2.2,3.61-.04,8.35-1.53,11.88-1.17,2.62-2.47,5.2-3.64,7.86-2.22,5.09-4.43,11.46-3.95,17.08.47,4.54,2.6,9.27,6.77,11.52,4.19,2.35,9.63,1.38,13.14-1.74,4.75-4.1,5.92-10.82,4.92-16.73-.87-5.84-3.83-11.02-6-16.39-1.89-4.32-2.97-8.87-3.28-13.52,3.15.75,6.59.33,9.65-.61,1.39-.46,2.8-.93,3.99-1.81.07-.04.12-.1.12-.18,0-.12-.08-.23-.2-.24-.23-.02-.47-.11-.69-.23-.69-.41-1.22-1.04-1.72-1.68-.45-.59-.92-1.27-1.34-1.92.44-.24.89-.48,1.35-.73.3.43.6.86,1,1.22.88.95,2.25,1.35,3.52,1.12,1.74-.35,3.51-.26,5.22.2.85.21,1.67.48,1.67,1.51,0,.57-.09,1.17-.42,1.66l-.5.74c-.27.36-.02.56.37.65,0,0,.34.11.59.19-.01.06-.02.12-.03.18l-.2,4.79s0,.02,0,.02c0,.02,0,.03,0,.05,0,.01,0,.02.01.03,0,.01.01.03.02.04,0,.01.02.02.02.03,0,0,0,.01.02.02,0,0,.01,0,.02,0,.01,0,.02.01.04.02.01,0,.03.01.04.02,0,0,.01,0,.02,0,.01,0,.03,0,.04,0,0,0,0,0,0,0s0,0,0,0c0,0,0,0,0,0,0,0,0,0,0,0,.02,0,.04,0,.07-.01.01,0,.02-.01.04-.02,0,0,.02,0,.03-.01.4-.28,1.13-.29,1.77-.31.42,0,.82-.02,1.14-.1-.01.61.45,1.14.91,1.51.75.66,1.58,1.37,2.36,2,.55.37.78,1.03.5,1.65-.68,1.59-2.25,2.44-3.68,3.28-2.35,1.36-4.79,2.65-7.39,3.43-1.36.39-2.83.66-4.19.4.55-1.89,1.03-3.8,1.35-5.75.5-3.04.32-6.5-3.38-7.12l-.54-.08s-.54-.04-.54-.04c-1.81,0-5.2-.17-6.22,1.68-.26.54-.2,1.09-.06,1.6.08.29.28.55.46.79.38.53,2.59,3.58,3.01,4.17l2.42,3.33c.4.6.94,1.16,1.58,1.55.29.17.6.3.91.41-.33,1.17-.67,2.33-1.01,3.49-.3,1.76-.68,3.53-.92,5.33-.81,5.41.33,10.84,2.83,15.66-.22-.54-.54-1.28-.76-1.86-.16-.46-.39-1.11-.55-1.58-.7-2.21-1.17-4.54-1.24-6.85-.2-3.5.71-7.24,1.35-10.49.37-1.16.73-2.33,1.08-3.5,3.92.75,9.04-2.32,12.07-4.16,1.17-.73,2.43-1.47,3.21-2.66.4-.58.8-1.32.55-2.05Zm-31.33-10.35c-1.64-.72-3.03-1.88-3.95-3.61-1.08-2.22-1.06-4.66-.48-7.04,1.64-.37,3.31-.54,5-.49-.25,2.48-.44,5.01-.52,7.44-.06,1.25-.08,2.48-.05,3.7Zm-1.51-17.41c.49-.8,1.05-1.84,1.78-2.42.22-.19.45-.23.44-.21.31.32.34.85.41,1.33.12,1.37-.03,2.78-.19,4.18-.1.89-.2,1.79-.29,2.7-1.63-.07-3.26.08-4.86.41.63-2.14,1.66-4.2,2.71-5.99ZM5.57,36.77c1,1,2.52.83,3.48-.11,1.4-1.31,2.02-3.21,2.47-5.01.12-.51.22-1.04.3-1.56v-.05s.06-.21.06-.21c0,0,.08-.19.08-.19.53-1.06,2.25-.99,2.61.19.21.65.37,1.35.5,2.03.77,4.78.07,10.17-3,14.03-2.63,3.16-5.93,3.01-8.35-.27-.9-1.17-1.55-2.54-2.12-3.92-.46-1.22-.66-2.51-.69-3.81-.01-3.9,1.29-8.18,3.6-11.66-.15.62-.28,1.25-.39,1.89-.41,2.68-.63,6.55,1.43,8.65Zm24.48.17c2.64,6.54,6.32,12.96,6.04,20.2-.08,4.05-1.55,8.27-4.66,10.91-2.01,1.72-4.66,2.74-7.31,2.55-4.15-.22-7.3-3.37-8.58-7.16-1.3-3.94-1.51-8.2-.62-12.32,1.32-5.59,4.08-10.69,6.4-15.93,1.65-3.91,3.88-8.84,1.4-12.89-.84-1.31-2.06-2.33-3.44-3-3.99-1.95-8.72-.45-11.95,2.3,1.31-2.2,2.86-4.24,4.82-5.9,2.61-2.15,5.68-3.83,8.95-4.76-.78,4.01-.09,8.03,3.84,10.53.58.35,1.19.64,1.81.87.22,5.02,1.25,9.81,3.3,14.59Zm7.67-21.34c-.25-.35-.56-.65-.99-.77-2.13-.44-2.65,3.2-2.84,4.7-.01.07.02.13.09.16.08.03.17-.01.19-.09.58-1.36,1.96-2.34,3.59-3.26.42.66.88,1.36,1.34,1.98.55.69,1.16,1.49,1.98,1.88-1.16.38-2.25.87-3.41,1.2-2.86.88-6.42,1.25-9.46.43-.05-1.03-.06-2.07-.03-3.11.02-2.76.22-5.7.45-8.46,3.68.38,7.38,1.79,10.13,4.29.1.11.19.23.29.35-.45.23-.89.46-1.32.71Zm-.32.18c-.58.34-1.15.7-1.68,1.11-.51.4-1,.89-1.35,1.45.18-.94.45-1.85,1.01-2.63.59-.83,1.5-.71,2.02.07Zm13.92,7.13c0-.17.1-.31.23-.36.03,0,.05-.01.08-.01.1,0,.2.05.29.16.68.75-.02,2.21-.64,3.49-.04.07-.07.15-.11.22l.14-3.5Zm2.52,4.1c-.26.07-.65.08-1.06.09-.44,0-.93.02-1.35.11.43-.64.92-.94,1.55-.94.04,0,.08,0,.12,0,.41.02.74.34.75.71,0,0,0,.01,0,.02Zm-12.89,12.18c-.53-.33-.96-.78-1.31-1.33,0,0-2.38-3.36-2.38-3.36-.42-.58-2.63-3.69-3-4.2-.07-.09-.2-.28-.26-.37-.03-.05-.05-.1-.07-.16,0,0-.05-.2-.05-.2-.26-1.31,1.37-1.57,2.39-1.73,5.27-.55,7.45.28,6.62,6.04-.29,1.91-.74,3.79-1.25,5.65-.24-.09-.47-.2-.69-.34Z"/>
      <g>
        <path class="cls-2" d="m79.81,41.47c1.86.04,4.13-.06,5.67-1.23.11-.08.43-.31.49-.38.38-.45.15-2.22.51-2.87.26-.47.89-.56,1.32-.24.63.47.14,1.82.09,2.51,0,.1-.06.32.08.3.58-1.75,1.51-4.57,2.86-5.85,1.34-1.27,2.93-.88,3.12,1.04.2,1.97-.44,4.07-.61,6.02l1.37-3c.45-1.09,2.27-2.78,3.03-1.01.7,1.63-.66,5.76-.77,7.69-.03.59-.14,1.7.72,1.5,1.46-.33,3.43-5.46,4.53-6.74,1.32-1.54,3.8-2.66,5.33-.73.29.37.74,1.35.69,1.81-.04.4-.34.47-.46.68-.69,1.22-1.29,6.61-1.19,8.08.3,4.44,2.98-.54,3.68-1.88.67-1.28,1.29-2.72,1.83-4.07.87-2.19,1.3-4.98,3.21-6.5,1.07-.85,2.95-1.21,4.03-.22.22.2.29.44.42.6.07.08.07.07.18.05,1.76-5.46,2.83-11.13,4.38-16.64.74-.45,1.08-.11.97.71-.31,2.45-1.28,5.64-1.84,8.13-1.2,5.32-2.27,10.39-2.48,15.9-.09,2.44-.09,8,1.78,9.76l.74.52c-1.83-.47-2.45-2.85-2.75-4.49-.69-3.77-.35-7.83-.03-11.63l-.32.85c-.19.53,0,1.14-.27,1.64-.17.31-.45.36-.61.6-.44.67-.78,1.8-1.24,2.57-1.37,2.3-3.89,4.28-5.36.8l-.43-2.39c-.72,2.14-1.54,4.56-2.79,6.44-.75,1.12-2.41,2.85-3.63,1.23s-.36-5.35-.17-7.24c-1,1.32-2.58,4.21-4.6,3.69-1.36-.36-1.33-2.7-1.13-3.77l-1.47,2.21c-1.82,1.6-2.5.23-2.44-1.65.07-1.99.8-4.16.78-6.16-.03-2.54-1.3-.24-1.71.63-.55,1.15-1.69,5.14-2.36,5.7-.58.49-1.24.19-1.36-.53-.17-1.01.59-3.96.75-5.19.18-1.41.44-2.98.1-4.36-.09-.07-.59.3-.69.39-1.94,1.85-3.56,9.31-4.06,12.06-.11.63.02,1.84-.92,1.85-.73.01-.82-.71-.9-1.27-.05-.33-.08-.86-.1-1.2-.09-1.93.06-3.94.26-5.85l-1.07.8c-1.19.69-2.56.97-3.92,1.11-.24.02-1.29-.08-1.35.15-.06.83-.05,1.67-.08,2.5-.36,7.91-.47,17.38,2.45,24.85.35.89.81,1.69,1.18,2.55.03.08.19.22.06.29-1.73-2.5-2.74-5.52-3.4-8.48-1.4-6.3-1.4-12.79-1.24-19.21.02-.84-.09-1.75.08-2.56l-11.1-.65c-1.44,3.97-3.01,8.05-3.94,12.18-.21.92-.29,2.09-.53,2.93-.27.93-1.59.82-1.73-.07-.07-.48.23-1.74.34-2.27.88-4.4,2.69-8.56,4.05-12.81-3.55.14-7.22.88-9.67,3.64-.58.66-1.23,2.26-2.27,1.58-.78-.5-.19-1.31.2-1.83,2.87-3.91,7.75-4.84,12.35-4.81,2.16-5.32,4.34-10.76,7.06-15.82.82-1.52,2.79-5.11,4.18-5.96.69-.42,1.39-.44,1.89.25,1.27,1.78.91,9.21.83,11.57-.12,3.74-.43,7.48-.61,11.22Zm-1.21-21.93c-.33-.25-1.93,2.23-2.12,2.52-2.35,3.75-4.36,8.46-6.07,12.56-.79,1.88-1.57,3.78-2.21,5.72l10.58,1.04c.17-3.46.33-6.9.43-10.36.09-3.29.29-6.68-.27-9.95-.09-.51-.21-1.03-.33-1.53Zm39.6,18.14c-.45-.41-1.34-.12-1.79.2-1.79,1.25-2.68,5.74-1.87,7.66.53,1.25,1.57-.15,2.02-.75,1.06-1.44,2.14-3.64,2.1-5.44,0-.4-.17-1.4-.46-1.66Zm-16.44,8.37c.3.2,1.18-.69,1.38-.9,1.34-1.41,2.2-3.28,3.26-4.9-.06-1.19-1.01-1.25-1.92-.78-1.8.94-3.24,4.63-2.72,6.58Z"/>
        <path class="cls-2" d="m131.6,40.89c-.75,1.21-1.35,6.75-1.24,8.25.29,3.86,2.47.23,3.22-1.11,1.4-2.49,2.36-5.22,3.45-7.86.14-.02.09.12.09.21-.09.97-.71,2.68-1.04,3.64-.65,1.9-2.47,6.74-4.38,7.5-1.43.57-2.13-.55-2.36-1.8-.35-1.94.09-3.98.32-5.91-.81,1.08-2.27,3.52-3.69,3.72-3.06.43-2.08-4.19-1.43-5.84.84-2.13,3.17-5.14,5.81-3.99.82.36,1.89,1.91,1.58,2.79-.09.27-.28.31-.34.4Zm-6.09,5.17c.3.2,1.18-.69,1.38-.9,1.34-1.41,2.2-3.28,3.26-4.9-.06-1.19-1.01-1.25-1.92-.78-1.8.94-3.24,4.63-2.72,6.58Z"/>
      </g>
      <path class="cls-2" d="m156.29,35.3c.13.02.12-.16.15-.25,1.33-3.94,2.71-8.68,5.51-11.86s7.03-3.46,7.91,1.42c.98,5.43-1.28,13.61-1.96,19.25-.33,2.73-1.17,9.06,1.37,10.86l1.37.6c-2.8-.08-3.44-3.39-3.57-5.62-.39-6.74,1.81-13.81,2.1-20.56.09-2.01.25-6.92-2.52-7.25-3.92-.47-6.65,6.41-7.72,9.35-1.31,3.62-2.23,7.37-3.04,11.13-.2.7-1.17.64-1.27-.07.27-6.85.85-14.01-.1-20.83-.35-2.54-1.62-9.65-5.63-7.75-3.49,1.65-4.81,9.94-5.23,13.42-.76,6.28-.89,13.41-.38,19.73.06.75.39,1.98.36,2.64-.04.99-1.58,1.3-1.89.08-.57-2.23-.44-5.85-.48-8.21-.11-7.21.22-20.6,4.31-26.66,2.02-2.98,5.68-4.26,8.05-.86,3.13,4.49,2.93,15.01,2.73,20.4-.01.34-.16.69-.09,1.05Z"/>
      <path class="cls-2" d="m175.01,44.31l-1.05,1.46c-1.45,1.66-3.11,1.79-3.84-.55-.46-1.49-.57-4.72-.19-6.22.29-1.14,1.69-.96,1.86-.02.07.38-.3,1.9-.35,2.44-.09.98-.18,2.86.18,3.75.3.75.61.55,1.14.13,2.63-2.03,4.42-9.24,8.83-7.9,1.01.31,2.03,1.7,2.01,2.74,0,.49-.34.55-.49.8-.74,1.3-1.37,7.04-1.25,8.61.31,4.06,2.6.25,3.4-1.17,1.42-2.52,2.27-5.19,3.44-7.8.03-.07.31-.76.29-.35s-.2.95-.3,1.34c-.65,2.47-2.78,8.62-4.77,10.12-1.3.98-2.58.56-3.02-1-.59-2.11,0-4.63.23-6.76-1.06,1.39-2.55,4.18-4.62,3.93-.43-.05-.9-.44-1.13-.79-.09-.15-.38-.87-.38-.99v-1.78Zm1.75,2c.31.21,1.25-.73,1.46-.95,1.41-1.49,2.32-3.46,3.44-5.16-.06-1.26-1.07-1.32-2.02-.83-1.9.99-3.41,4.89-2.87,6.94Z"/>
      <path class="cls-2" d="m170.97,36.63c-.03-.22.02-.41.06-.62.08-.36.67-1.88.86-2.15.53-.76,1.59-.1,1.16.71-.12.24-1.18,1.5-1.4,1.71-.1.09-.61.45-.69.36Z"/>
      <g>
        <path class="cls-2" d="m2.77,91.23h-.91v1.64H.65v-5.45h2.23c1.3,0,2.09.77,2.09,1.89v.02c0,1.26-.98,1.92-2.2,1.92Zm.99-1.91c0-.54-.37-.83-.97-.83h-.93v1.67h.95c.6,0,.95-.36.95-.83v-.02Z"/>
        <path class="cls-2" d="m12.87,92.87v-5.45h1.2v4.36h2.72v1.09h-3.92Z"/>
        <path class="cls-2" d="m28.76,92.87l-.5-1.22h-2.31l-.5,1.22h-1.22l2.34-5.49h1.11l2.34,5.49h-1.25Zm-1.65-4.05l-.72,1.77h1.45l-.72-1.77Z"/>
        <path class="cls-2" d="m39.75,90.7v2.17h-1.2v-2.15l-2.1-3.3h1.4l1.3,2.19,1.32-2.19h1.36l-2.1,3.28Z"/>
        <path class="cls-2" d="m52.81,92.87l-.5-1.22h-2.31l-.5,1.22h-1.22l2.34-5.49h1.11l2.34,5.49h-1.25Zm-1.65-4.05l-.72,1.77h1.45l-.72-1.77Z"/>
        <path class="cls-2" d="m73.39,92.87h-2.13v-5.45h2.13c1.71,0,2.9,1.18,2.9,2.71v.02c0,1.53-1.18,2.73-2.9,2.73Zm1.64-2.73c0-.97-.66-1.64-1.64-1.64h-.93v3.29h.93c.98,0,1.64-.66,1.64-1.63v-.02Z"/>
        <path class="cls-2" d="m84.37,92.87v-5.45h4.11v1.07h-2.92v1.11h2.57v1.07h-2.57v1.15h2.96v1.07h-4.15Z"/>
        <path class="cls-2" d="m96.6,92.87v-5.45h1.2v4.36h2.72v1.09h-3.92Z"/>
        <path class="cls-2" d="m120.34,92.96c-1.6,0-2.8-1.24-2.8-2.8v-.02c0-1.55,1.17-2.82,2.84-2.82,1.03,0,1.64.34,2.15.84l-.76.88c-.42-.38-.85-.62-1.39-.62-.92,0-1.58.76-1.58,1.7v.02c0,.93.65,1.71,1.58,1.71.62,0,1-.25,1.43-.64l.76.77c-.56.6-1.18.97-2.24.97Z"/>
        <path class="cls-2" d="m134.61,92.87l-.5-1.22h-2.31l-.5,1.22h-1.22l2.34-5.49h1.11l2.34,5.49h-1.25Zm-1.65-4.05l-.72,1.77h1.45l-.72-1.77Z"/>
        <path class="cls-2" d="m147.02,92.87l-1.17-1.75h-.94v1.75h-1.2v-5.45h2.49c1.29,0,2.06.68,2.06,1.8v.02c0,.88-.48,1.43-1.17,1.69l1.33,1.95h-1.4Zm.02-3.59c0-.51-.36-.78-.94-.78h-1.19v1.57h1.22c.58,0,.92-.31.92-.77v-.02Z"/>
        <path class="cls-2" d="m160.62,92.87v-3.56l-1.53,2.33h-.03l-1.52-2.31v3.54h-1.18v-5.45h1.29l1.43,2.31,1.43-2.31h1.29v5.45h-1.19Z"/>
        <path class="cls-2" d="m170.13,92.87v-5.45h4.11v1.07h-2.92v1.11h2.57v1.07h-2.57v1.15h2.96v1.07h-4.15Z"/>
        <path class="cls-2" d="m186.19,92.87l-2.64-3.47v3.47h-1.18v-5.45h1.11l2.56,3.36v-3.36h1.18v5.45h-1.02Z"/>
      </g>
      <line class="cls-1" x1="189" y1="79.95" x2=".93" y2="79.95"/>
      <g>
        <path class="cls-3" d="m85.85,58.92h.46v2.22h1.39v.42h-1.85v-2.64Z"/>
        <path class="cls-3" d="m91.32,60.42c0,.79-.45,1.19-1.14,1.19s-1.13-.4-1.13-1.16v-1.52h.46v1.5c0,.49.25.76.67.76s.66-.25.66-.74v-1.52h.46v1.5Z"/>
        <path class="cls-3" d="m94.63,61.57l-.69-1-.7,1h-.53l.96-1.34-.93-1.3h.55l.66.95.66-.95h.53l-.92,1.29.96,1.35h-.55Z"/>
        <path class="cls-3" d="m98.82,60.42c0,.79-.45,1.19-1.14,1.19s-1.13-.4-1.13-1.16v-1.52h.46v1.5c0,.49.25.76.67.76s.66-.25.66-.74v-1.52h.46v1.5Z"/>
        <path class="cls-3" d="m102.14,61.57l-.65-.92h-.58v.92h-.46v-2.64h1.18c.61,0,.98.32.98.84,0,.44-.26.7-.63.8l.71,1h-.55Zm-.56-2.22h-.68v.89h.68c.33,0,.54-.17.54-.45,0-.29-.2-.44-.55-.44Z"/>
        <path class="cls-3" d="m105.31,61.57h-.47v-1.04l-1.05-1.6h.55l.74,1.17.75-1.17h.53l-1.05,1.59v1.05Z"/>
        <path class="cls-3" d="m110.06,58.92h.46v2.22h1.39v.42h-1.85v-2.64Z"/>
        <path class="cls-3" d="m113.87,58.92v2.64h-.46v-2.64h.46Z"/>
        <path class="cls-3" d="m117.44,58.92h.5l-1.1,2.66h-.41l-1.1-2.66h.51l.8,2.03.79-2.03Z"/>
        <path class="cls-3" d="m119.87,58.92v2.64h-.46v-2.64h.46Z"/>
        <path class="cls-3" d="m123.4,58.92h.46v2.64h-.39l-1.46-1.88v1.88h-.46v-2.64h.43l1.42,1.83v-1.83Z"/>
        <path class="cls-3" d="m126.78,61.61c-.83,0-1.37-.59-1.37-1.36s.57-1.37,1.36-1.37c.46,0,.74.13,1.02.36l-.29.35c-.2-.17-.4-.28-.74-.28-.49,0-.86.42-.86.94,0,.55.36.95.9.95.25,0,.48-.08.64-.2v-.49h-.68v-.4h1.13v1.11c-.26.22-.63.41-1.1.41Z"/>
        <path class="cls-3" d="m133.83,59.6c0,.32-.18.49-.38.59.31.11.52.28.52.65,0,.48-.39.73-.98.73h-1.22v-2.64h1.19c.53,0,.87.26.87.68Zm-.46.08c0-.22-.17-.34-.46-.34h-.67v.7h.63c.3,0,.5-.12.5-.36Zm.15,1.11c0-.23-.18-.36-.54-.36h-.74v.73h.77c.32,0,.51-.12.51-.37Z"/>
        <path class="cls-3" d="m136.62,61.57h-.47v-1.04l-1.05-1.6h.55l.74,1.17.75-1.17h.53l-1.05,1.59v1.05Z"/>
        <path class="cls-3" d="m144.05,61.31l-.3.33-.32-.28c-.22.15-.5.25-.8.25-.81,0-1.38-.62-1.38-1.36s.57-1.37,1.39-1.37,1.38.62,1.38,1.36c0,.3-.1.59-.27.82l.3.26Zm-1.41-.64l.3-.34.46.42c.09-.14.14-.31.14-.5,0-.52-.37-.94-.9-.94s-.89.42-.89.94.37.94.9.94c.17,0,.33-.05.45-.13l-.45-.39Z"/>
        <path class="cls-3" d="m147.79,60.42c0,.79-.45,1.19-1.14,1.19s-1.13-.4-1.13-1.16v-1.52h.46v1.5c0,.49.25.76.67.76s.66-.25.66-.74v-1.52h.46v1.5Z"/>
        <path class="cls-3" d="m151.37,59.34h-1.49v.69h1.33v.42h-1.33v.71h1.51v.42h-1.98v-2.64h1.96v.42Z"/>
        <path class="cls-3" d="m155.45,61.57h-.49l-.27-.64h-1.25l-.27.64h-.48l1.16-2.66h.43l1.16,2.66Zm-1.39-2.11l-.45,1.06h.91l-.46-1.06Z"/>
        <path class="cls-3" d="m158.59,61.57l-.65-.92h-.58v.92h-.46v-2.64h1.18c.61,0,.98.32.98.84,0,.44-.26.7-.63.8l.71,1h-.55Zm-.56-2.22h-.68v.89h.68c.33,0,.54-.17.54-.45,0-.29-.2-.44-.55-.44Z"/>
        <path class="cls-3" d="m163.13,61.57h-.49l-.27-.64h-1.25l-.27.64h-.48l1.16-2.66h.43l1.16,2.66Zm-1.39-2.11l-.45,1.06h.91l-.46-1.06Z"/>
        <path class="cls-3" d="m166.54,59.35h-1.5v.72h1.33v.42h-1.33v1.08h-.46v-2.64h1.97v.42Z"/>
        <path class="cls-3" d="m169.27,61.61c-.81,0-1.38-.62-1.38-1.36s.57-1.37,1.39-1.37,1.38.62,1.38,1.36-.57,1.37-1.39,1.37Zm0-2.31c-.52,0-.89.42-.89.94s.37.94.9.94.89-.42.89-.94-.37-.94-.9-.94Z"/>
        <path class="cls-3" d="m173.9,61.57l-.65-.92h-.58v.92h-.46v-2.64h1.18c.61,0,.98.32.98.84,0,.44-.26.7-.63.8l.71,1h-.55Zm-.56-2.22h-.68v.89h.68c.33,0,.54-.17.54-.45,0-.29-.2-.44-.55-.44Z"/>
        <path class="cls-3" d="m177.88,59.34h-1.5v.69h1.33v.42h-1.33v.71h1.51v.42h-1.98v-2.64h1.96v.42Z"/>
        <path class="cls-3" d="m181.31,58.92h.5l-1.1,2.66h-.41l-1.1-2.66h.51l.8,2.03.79-2.03Z"/>
        <path class="cls-3" d="m185.21,59.34h-1.49v.69h1.33v.42h-1.33v.71h1.51v.42h-1.98v-2.64h1.96v.42Z"/>
        <path class="cls-3" d="m188.45,61.57l-.65-.92h-.58v.92h-.46v-2.64h1.18c.61,0,.98.32.98.84,0,.44-.26.7-.63.8l.71,1h-.55Zm-.56-2.22h-.68v.89h.68c.33,0,.54-.17.54-.45,0-.29-.2-.44-.55-.44Z"/>
      </g>
    </g>
  </g>
</svg>