<?xml version="1.0" encoding="UTF-8"?>
<svg id="Layer_2" data-name="Layer 2" xmlns="http://www.w3.org/2000/svg" viewBox="0 0 527.79 286.93">
  <defs>
    <style>
      .cls-1 {
        fill: #606060;
        stroke-width: 0px;
      }
    </style>
  </defs>
  <g id="Layer_1-2" data-name="Layer 1">
    <g>
      <path class="cls-1" d="m255.86,172.09c.29,17.04,9.93,20.89,23.37,11.09,8.47-6.18,15.19-14.78,21.41-23.15,8.06-10.85,15.62-26.1,31.51-26.8,9.99-.44,19.96,8.66,20.21,18.63.08,3.25-2.26,4.43-3.42,6.76-4.82,9.75-8.8,44.36-7.96,55.44,2.16,28.51,18.75-.83,23.71-9.98,5.23-9.64,18.04-35.84,20.02-45.68,1.22-6.07-.14-13.82.85-20.29.45-2.94,4.01-5.18,6.84-4.66,5.89,1.1,5.29,6.21,5.15,10.93-.13,4.48-1.03,9.74-1.19,14.24-.04,1.21-.34,12.89.31,12.88,3.2-10.6,5.56-21.8,10.47-31.81,4.6-9.38,11.61-17.13,16.38-2.47,2.32,7.13,3.27,24.87,14.32,21.73,7.41-2.1,7.92-7.6,12.26-12.87,8.75-10.61,26.3-19.22,37.11-6.28,2.89,3.46,6.35,11.31,4.13,15.53-3.06,5.81-4.01,7.7-5.55,14.45-2.54,11.17-8.02,45.27-2.48,54.48,4.17,6.92,12.46-5.59,14.78-9.04,12.58-18.7,19.3-40.88,28.46-61.23.29-.64.41-1.98,1.22-1.91-1.47,10.28-5.05,20.8-8.55,30.57-4.45,12.4-15.54,40.81-27.04,47.23s-17.05-2.87-18.61-13.03c-2.01-13.08,1.19-27.23,2.78-40.21l-12.58,17.41c-5.52,5.68-13.75,12.83-21.89,7.64-11.31-7.22-4.45-31.43-.38-41.61-15.98,11.02-20.64-13.02-24.57-23.42-3.61,4.32-5.12,10.54-6.69,15.87-2.01,6.83-3.64,14.18-5.13,21.15-1.38,6.45-3.63,26.16-6.78,30.35-2.19,2.92-6.6,3.92-9.22,1.01-4.56-5.09-3.87-29.71-4.17-37.25-.03-.69.43-2.12-.57-1.99.03.94-.13,1.84-.41,2.74-4.71,15.09-18.05,53.7-31.77,61.35-10.99,6.13-16.86-2.45-18.52-12.55-2.18-13.23,1.08-27.55,2.69-40.69l-7.76,11.37c-5.65,7.52-17.5,21.2-27.67,12.91-7.88-6.42-4.89-20.73-3.42-29.43l-7.7,9.72c-14.29,17.21-37.65,22.21-42.42-5.58-.3-1.74.05-3.41-.14-5.01-.1-.8-.36-1.69-1.14-.85-3.78,12.26-7.78,24.92-13.61,36.39-3.52,6.93-11.18,21.47-20.65,14.14-8.36-6.47-7.17-30.66-6.32-40.24-5.75,8.01-14.75,20.54-26.11,14.4-12.62-6.82-8.81-35.73-6.17-47.54.73-3.28,2.59-11.28,4.62-13.66,3.46-4.04,10.49-1.42,10.98,3.81.13,1.4-3.54,11.07-4.17,13.85-1.48,6.57-4.68,28.19-.54,33.12.38.45,1.1.95,1.69.95,5.94-2.8,10.1-9.53,13.15-15.2,7.01-13.03,10.95-27.45,15.78-41.35,4.6-3.41,8.3-1.51,7.85,4.42-.52,6.93-4.62,18.74-6.04,26.53-2.31,12.73-7.18,42.08-2.35,53.4,1.49,3.48,3.23,4.34,6.16,1.67,7.68-7.02,23.11-43.46,26.54-54.42,3.28-10.48,4.22-21.86,12.57-30.28,6.69-6.74,19.58-10.19,23.43,1.18,5.17,15.27-9.76,40.83-27.11,41.12Zm.57-12.58c6.73-.61,11.73-7.14,14.15-12.98.67-1.61,4.24-12.46,1.57-12.69-10.35,3.92-13.35,16.01-15.72,25.67Zm74.69-14.14c-12.84,2.08-23.36,25.14-24.41,36.72-.17,1.91-.58,10.62,1.48,11.08,5.09-1.9,8.85-6.41,12.21-10.53,7.44-9.14,12.83-20.09,19.21-29.97-.1-4.74-3.54-8.1-8.49-7.3Zm139.97,0c-12.84,2.08-23.36,25.14-24.41,36.72-.17,1.91-.58,10.62,1.48,11.08,5.09-1.9,8.85-6.41,12.21-10.53,7.44-9.14,12.83-20.09,19.21-29.97-.1-4.74-3.54-8.1-8.49-7.3Z"/>
      <path class="cls-1" d="m87.78.29c56.74-5.04,70.08,55.83,68.12,100.11-1.86,42.15-24.36,122.96-70.43,136.38-39.47,11.5-56.55-26.75-56.67-59.59C-.28,149.26,2.12,103.07,15.48,67.95,27.04,37.55,52.88,3.4,87.78.29Zm-47.3,184.93c2.23,28.99,20.27,55.22,51.59,37.02,42.54-24.72,60.28-113.4,53.37-158.27C135.07-3.38,74.04-10.49,36.59,41.65,15.61,70.84,3.16,116.37,16.06,151.09c2.79,7.5,6.9,14.4,12.14,20.42,1.09-17.01,3.59-33.37,9.41-49.42,3.15-8.68,13.64-30.51,21.17-35.38,5.88-3.8,11.93,2.34,9.04,7.9-1.3,2.5-6.16,7.16-8.16,10.12-14.6,21.65-20.09,50.86-19.21,76.69,7.21,4.55,15.55,7.15,23.91,8.77,3.33.64,6.79.69,10.1,1.33.83.16,1.77,0,2.01,1.13-8.98-.11-18.16-.98-26.73-3.83-1.39-.46-8.78-4.03-9.26-3.59Z"/>
      <path class="cls-1" d="m164.45,276.06l-3.69-8.59c-9.76-17.71-46.8-15.7-63.93-13.62-30.9,3.75-63.48,14.83-88.87,32.82-4.91,1.42-9.42-3.32-7.5-8.09,1.11-2.77,7.46-6.5,10.15-8.13,31.74-19.29,93.63-32.04,129.41-21.66,12.71,3.69,26.5,11.97,24.44,27.26Z"/>
    </g>
  </g>
</svg>