<?xml version="1.0" encoding="UTF-8"?>
<svg id="Layer_2" data-name="Layer 2" xmlns="http://www.w3.org/2000/svg" viewBox="0 0 1646.42 321.27">
  <defs>
    <style>
      .cls-1 {
        fill: #606060;
        stroke-width: 0px;
      }
    </style>
  </defs>
  <g id="Layer_1-2" data-name="Layer 1">
    <g>
      <path class="cls-1" d="m1301.32,188.81c15.38,2.17,31.09-.51,42.1-12.04,1.32-5.16-.38-14.71,5.66-17.13,3.91-1.56,8.9,1.1,9.26,5.43.4,4.75-2.23,13.56-2.56,19-.33,5.36-.83,25.48,2.84,28.81.39.35.7.69,1.28.66,6.27.57,17.63-16.66,20.83-21.62,2.59-4.01,8.39-12.79,9.69-16.9,4.98-15.76,5.33-28.84,16.95-42.57,17.15-20.25,40.79-11.1,37.62,16.09-.81,6.93-9.36,26.13-18.45,18.76-6.59-5.34,2-11.49,4.06-16.68,4.53-11.37.41-23.19-12.15-12.78-15.65,12.96-26.22,61.91-16.17,79.51,9.48,16.62,31.19-4.79,38.67-13.32,3.53-4.03,17.91-22.86,18.63-26.96.95-5.43-.82-17.46,7.4-17.99,2.89-.18,6.71,2.35,7.17,5.4.66,4.34-2.23,14.88-2.53,20.19-.25,4.44-.88,27.33,3.62,28.77,4.61,1.48,14.07-10.87,16.55-14.3,3.67-5.06,10.79-15.6,13.13-21.07,1.53-3.57,1.75-9.54,3.16-13.93,3.33-10.38,12.48-24.74,24.2-26.46,29.02-4.25,30.5,36.75,28.02,56.19,1.25,1.4,21.07-14.16,22.5-16.49-1.63-10.72-2.06-21.39,3.83-30.95,11.64-18.93,39.4-9.35,33.37,13.11-1.61,6-6.41,15.45-13.79,10.27-6.45-4.52-.52-9.17.78-13.8,2.29-8.13-6.27-8.72-9.97-2.36-6.44,11.04-2.08,23.49,3.21,33.87.7.19,1.23,0,1.86-.3,2.31-1.08,6.26-4.54,9.09-6.11,9.51-5.29,26.24-12.32,35.25-3.37-2.13.34-3.99-1.26-6.07-1.53-12.32-1.63-26.76,8.7-36.08,15.77l-.03,1.29c8.18,13.21,20.55,27.47,15.78,44.18-7.95,27.82-60.98,23.13-49.24-13.78,3.45-10.84,12.82-20.28,20.47-28.34l-7.83-16.01c-6.1,8.75-14.8,15.55-24.23,20.4-2.79,16.06-12.38,42.32-32.12,42.32-20.22,0-23.05-26.34-21.84-41.5.39-4.85,2.72-9.33,1.25-14.26-.98.16-1.19,1.18-1.57,1.91-2.29,4.5-4.02,9.29-6.55,13.71-4.99,8.72-17.67,27.9-29.55,19.2-8.78-6.43-8.42-22.3-9.26-31.89-.06-.69-.29-3.49-1.18-3.56-7.45,16.39-28.24,46.57-48.46,45.62-18.3-.86-21.65-27.13-21.2-41.19l-8.6,15.77c-10.05,17.68-28.6,27.59-34.78.69-2.02-8.8-1.9-18.41-1.89-27.23-8.94,11.01-22.61,14.9-36.41,14.57,19.84,15.3,27.78,43.84,21.21,67.74-4,14.54-16.12,26.23-27.42,9.7-6.06-8.87-8.91-22.95-10.17-33.52-2.07-17.34-1.67-35.44-.09-52.79-8.71,12.13-18.22,28.16-32.76,34.04-16.89,6.83-26.62-4.86-29.23-20.49-.16-.96-.21-9.09-1.01-9.12-3.94,7.85-12.38,25.47-21.32,28.07-13.69,3.99-12.25-16.12-11.92-24.58.52-13.27,2.97-26.54,1.92-39.92-.41-5.24-.98-11.3-7.32-7.91-13.75,7.35-31.8,54.26-36.07,69.67-1.08,3.9-2.97,16.9-5.4,18.67-4.09,2.97-8.86.46-9.43-4.47-.89-7.76,2.09-22.32,2.47-30.98.18-4.1-.11-8.24,0-12.34l-6.44,9.69c-8.09,11.64-25.47,30.93-41.38,24.52-24.99-10.07-13.74-75.26,12.74-78.49,7.81-.95,13.19,4.22,14.12,11.73,2.15,17.32-12.14,41.12-30.95,42.04-.05,11.54,4.79,21.68,17.9,16.95,9.59-3.46,28.37-23.12,33.04-32.18,3.78-7.35-.11-17.44,1.04-25.55.81-5.67,7.79-8.51,11.75-4.59,4.28,4.23,1.26,21.65,1.49,27.97.03.76-.48,2.35.62,2.2,6.05-12.4,13.41-28.02,23.42-37.69,7.29-7.05,19.59-12.25,24.73,0,6.84,16.31-3.8,46.93-1.91,65.23.63,6.12,3.09,6.03,7.6,2.56,5.88-4.53,17.56-21.68,20.12-28.64,3.89-10.58,3.24-18.85,10.64-29.26,11.38-16.02,32.14-15.19,30.01,8.48-1.33,14.86-14.82,33.99-31.01,34.53.33,18.88,11,23.16,25.9,12.29,10.88-7.93,19.52-19.53,27-30.63,3.71-35.15,8.85-71.14,19.11-105,1.67-5.51,4.31-14.94,6.81-19.79,4.01-7.78,14-4.47,12.94,4.07-.67,5.32-6.57,18.14-8.49,24.44-10.63,34.77-16.85,72.04-19.95,108.28Zm212.77-15.83c2.74-4.88,9.86-6.66,12.92-1.21s-1.27,8.1-3.34,12.38c-1.37,2.83-5.19,10.56-2.97,12.92,4.53,4.8,21.29,4.37,27.27,1.88,3.74-11.5,5.26-42.65-5.43-50.31-13.49-9.65-27.07,13.14-28.45,24.34Zm-424.89,8.23c7.46-.67,13-7.91,15.68-14.39.74-1.79,4.7-13.81,1.74-14.06-11.48,4.35-14.8,17.75-17.42,28.46Zm149.44,0c7.46-.67,13-7.91,15.68-14.39.74-1.79,4.7-13.81,1.74-14.06-11.48,4.35-14.8,17.75-17.42,28.46Zm62.38,15.84c-.92.58-.88,1.23-.99,2.18-1.61,14.19-.28,41.75,3.52,55.43.94,3.39,5.33,16.96,10,15.75,3.38-.88,7.09-11.1,7.86-14.35,4.85-20.63-2.13-46.96-20.38-59.01Zm293.88,3.84c-8.95,8.88-27.68,33.23-11.61,43.13,10,6.17,27.17.24,27.62-12.57.27-7.57-9.09-23.72-14.25-29.3-.49-.53-.84-1.43-1.77-1.27Zm-77.02,2.49v11.71c0,1.22,1.5,6.64,2.04,8.09,1.09,2.92,3.17,6.38,6.57,6.78,10.11,1.18,18.11-16.92,19.89-24.99-9.44,2.33-19.5,2.46-28.5-1.59Z"/>
      <path class="cls-1" d="m330.61,96.99c10.82-.84,22.96-2.2,33.79-1.18,4.46.42,13.53,2.33,13.7,7.83-2.11-.41-3.86-1.85-6.07-2.16-8.46-1.15-32.75,2.85-41.58,5.19-.67.18-1.44.16-1.74.92-2.49,16.98-5.4,34.03-6.96,51.14-1.71,18.7-3.47,42.21-.46,60.61.96,5.9,2.7,16.68,10.57,14.09,15.7-5.17,36.25-47.69,45.73-61.92,8.84-13.27,27.97-27.52,42.95-14.06,4.18,3.76,9.25,13.81,6.45,19.13-3.39,6.44-4.45,8.54-6.15,16.01-2.88,12.64-8.73,49.24-2.97,59.97,4.37,8.14,13.04-4.43,15.84-8.48,5.52-7.97,10.66-18.19,14.79-27,3.81-8.12,14-29.32,15.58-36.98,1.16-5.64-1.31-14.24-1.08-20.07.31-8.02,11.18-9.26,13.75-1.81l1.41,35.64c4.22-2.75,7.92-6.3,12.08-9.12,3.66-2.49,11.58-6.1,14.18-8.61,2.23-2.15,4.42-7.07,6.67-9.8,9.67-11.74,29.14-21.31,41.13-6.96,3.41,4.08,7.12,12.68,4.36,17.62-3.36,6.01-4.19,8.13-5.81,15.09-2.95,12.68-8.88,49.7-3.09,60.48,4.37,8.14,13.04-4.43,15.84-8.48,5.52-7.97,10.66-18.19,14.79-27,2.94-6.27,15.95-35.26,15.72-39.98-.46-9.34-2.83-14.78.61-24.74,9.98-28.91,48.36-14.94,34.13,12.6-2.26,4.37-5.43,8.19-10.91,5.39-7.66-3.92-.95-10.26.18-14.89,1.86-7.66-6.51-7.96-10.09-1.83-6.44,11.04-2.08,23.49,3.21,33.87.7.19,1.23,0,1.86-.3,2.31-1.08,6.26-4.54,9.09-6.11,9.3-5.17,26.89-12.63,35.25-3.06-15.24-6.15-30.9,5.27-42.38,14.32,7.73,14.12,21.23,28.07,15.82,45.56-5.93,19.14-35.24,23.68-47.22,7.9-4.96-6.54-3.56-12.8-2.36-20.12.11-.67.67-2.2-.47-2.05-4.13,11.13-16.25,37.75-30.12,38.01-8.79.17-12.42-9.77-13.51-16.88-2.23-14.5,1.32-30.18,3.09-44.56l-14.23,19.64c-6.14,6.13-15.04,13.82-23.97,8.12-12.77-8.15-4.74-36.13.21-47.39-8.37,5.6-16.17,12.29-23.29,19.44l-.1,34.72c-.7,22-3.26,61.72-19.63,77.88-15.36,15.16-28.13,1.21-29.71-15.94-1.42-15.42,1.54-30.83,6.88-45.19-9.05,12.09-23.77,15.19-28.18-2.53-3.86-15.53.34-33.17,2.21-48.76l-8.6,12.61c-6.19,8.24-18.66,22.73-29.98,14.89-6.56-4.54-6.69-14.33-6.4-21.51.06-1.47,1.5-4.6.03-5.35-4.36,9.28-10.01,18.93-16.49,26.89-13.89,17.06-29.21,21.63-35.76-4.09-3.04-11.96-2.89-25.09-3.48-37.36l-8.6,16.41c-6.87,13.09-24.53,26.21-26.25,1.67-1.16-16.54,3.29-34.32,1.95-51.34-.96-12.17-5.69-10.96-12.7-3.16-12.73,14.15-25.56,46.41-30.69,64.92-1.35,4.86-1.91,10.59-3.28,15.08-2.07,6.77-10.71,6.32-11.54-.89-.89-7.76,2.09-22.32,2.47-30.98.18-4.1-.11-8.24,0-12.34l-6.44,9.69c-8.1,11.58-25.02,30.52-40.91,24.68-25.6-9.4-14.39-75.4,12.27-78.65,8.17-1,13.39,4.59,14.19,12.3,1.78,17.29-12.34,40.47-31.01,41.47.09,13.97,6.58,22.84,20.9,15.52,8.63-4.41,25.6-22.15,30.03-30.76,3.78-7.35-.11-17.44,1.04-25.55.81-5.67,7.79-8.51,11.75-4.59,4.28,4.23,1.26,21.65,1.49,27.97.03.76-.48,2.35.62,2.2,5.9-12.24,12.94-26.89,22.48-36.73,6.95-7.16,19.91-13.82,25.48-1.41,7.15,15.92-3.59,47.51-1.72,65.68.31,3.04.39,5.35,3.96,4.63,8.13-1.66,20.42-24.67,24.39-31.99.91-24.01,3.26-47.87,5.84-71.72-6.92,1.35-29.29,1.04-34.2-4.1-4.08-4.26-.96-11.51,4.77-11.77,2.79-.13,8.27,2.86,11.67,3.56,6.48,1.32,13.09.85,19.66.92,1.09-6.73,1.39-16.79,3.93-22.98,2.76-6.74,12.39-4.77,13.15,1.83.36,3.11-4.87,19.99-3.78,21.15Zm-160.84,84.21c7.46-.67,13-7.91,15.68-14.39.74-1.79,4.7-13.81,1.74-14.06-11.48,4.35-14.8,17.75-17.42,28.46Zm234.76-15.68c-14.23,2.31-25.89,27.86-27.05,40.7-.19,2.12-.64,11.77,1.64,12.28,5.64-2.11,9.81-7.11,13.53-11.68,8.25-10.13,14.22-22.27,21.29-33.22-.11-5.25-3.92-8.98-9.41-8.09Zm129.81,0c-14.23,2.31-25.89,27.86-27.05,40.7-.19,2.12-.64,11.77,1.64,12.28,5.64-2.11,9.81-7.11,13.53-11.68,8.25-10.13,14.22-22.27,21.29-33.22-.11-5.25-3.92-8.98-9.41-8.09Zm50.18,52.4c4.02-8.86,11.08-15.68,17.65-22.61.47-1.81-6.24-10.53-6.26-13.48l-11.75,34.15.35,1.93Zm-131.71,4.43c3.2-6.41,8.74-11.42,13.22-16.92l-1.18-19.17-12.37,34.17.33,1.92Zm153.01-21.48c-8.95,8.88-27.68,33.23-11.61,43.13,10,6.17,27.17.24,27.62-12.57.27-7.57-9.09-23.72-14.25-29.3-.49-.53-.84-1.43-1.77-1.27Zm-140.33,13.26c-3.12,5.15-6.92,9.82-10.02,15-11.22,18.76-21.36,47.47-16.4,69.34,2.72,11.99,7.79,14.49,15.53,3.88,13.06-17.92,12.49-64.82,11.51-86.65-.03-.71.41-1.74-.63-1.57Z"/>
      <path class="cls-1" d="m956.22,115.35c18.02-.3,36.24-.09,53.47,5.69,22.28-10.63,46.13-17.73,70.93-19.01.74-.04,3.51-.44,3.51.66-24.09,2.19-47.31,9.26-69.01,19.65-.3,1.64.24.98.9,1.31,20.8,10.63,33.31,23.85,36.92,47.92,7.48,49.82-32.2,105.6-72.7,130.85-47.3,29.5-117.74,31.34-94.31-45.55,8.72-28.62,27.33-53.38,46.1-76.11,1.38-18.18,4.65-36.08,7.73-54l-19.67.99c-6.97-3.04-5.83-8.62.69-11.43,7.78-3.36,16.53-4.74,24.05-8.88,8.13-23.93,23.7-62.79,49.4-72.18,11.29-4.12,24.34-.59,25.89,12.73,3.03,26.05-32.94,50.26-52.7,61.15-3.67,2.02-8.17,3.43-11.19,6.22Zm5.07-15.82c15.97-8.81,41.43-25.27,46.4-43.83,2.75-10.28-2.46-12.4-11.38-8.21-16.33,7.67-29.85,35.44-35.02,52.04Zm34.82,28.5c-4.09-.57-8.24-1.54-12.35-1.9-5.51-.48-11.04-.03-16.43.02-4.73.04-9.48-.15-14.21.04l-6.39,39.83c7.21-6.6,14.46-13.26,22.22-19.25,8.72-6.73,18.09-12.52,27.16-18.74Zm-64.59,62.68c-27.64,27.26-81.73,133.78.15,122.03,53.31-7.65,105.17-64.67,111.85-117.37,3.64-28.72-7.36-55.77-36.67-64.48-6.54-1.94-7.91.57-13.21,3.82-17.34,10.64-33.29,24.79-47.58,39.17l-.59,1.31c-2.48,29.08-2.9,58.2-1.94,87.4.23,7.01,2.1,17.37,1.31,24.05-.55,4.6-5.48,7.48-9.75,5.29-3.25-1.67-3.92-5.8-4.19-9.11-1.69-20.98-1.19-42.34-.62-63.29.26-9.6-.24-19.37,1.23-28.84Z"/>
      <path class="cls-1" d="m797.91,210.33c1.79-5.74,4.61-11.02,6.29-16.83,2.93-10.15,4.8-23.99-.48-33.61-2.37-4.32-6.24-6.92-9.6-10.34,24.85,10.6,15.71,44.5,7.02,63.57.39,1.66,17.11,10.03,19.79,11.26,5.34,2.45,14.36,3.02,12.16,11.3-1.46,5.5-6.46,5.15-10.81,3.8-9.46-2.93-18.72-8.88-27.21-13.83-12.19,18.88-29.3,41.92-52.83,46.45-21.72,4.19-35.05-10.04-37.95-30.5-4.43-31.19,12.45-63.09,30.19-87.41-12.09-27.18-14.33-63.28,5.85-87.27,18.42-21.9,43.81-14.48,41.76,15.8-1.71,25.32-19.53,48.97-34.12,68.52l-.41,1.51c8.34,16.87,20.64,33.15,34.52,45.87,2.83,2.6,11,9.89,13.95,11.38.65.33,1.16.44,1.88.33Zm-29.34-142.89c-7.46-7.53-19.03,5.1-22.85,11.23-11.57,18.61-11.01,43.55-2.58,63.26,10.64-14.97,22.44-31.71,26.73-49.88,1.42-6.01,3.29-19.99-1.3-24.61Zm-28.92,96.67c-.95-.23-1.01.14-1.54.66-1.93,1.94-5.85,8.68-7.58,11.42-12.21,19.33-20.8,40.71-18.65,64.14,1.11,12.1,7.87,24.54,21.13,25.72,23.49,2.09,46.81-24.98,57.33-43.41l-.12-.8c-20.97-14.68-38.62-35.08-50.57-57.72Z"/>
      <path class="cls-1" d="m115.32.11c1.28-1.24,7.26,7.92,7.86,8.91,23.58,39.04,17.13,124.53,9.03,168.5-5.77,31.35-22.4,101-58.68,109.12-46.36,10.37-62.03-68.86-67.02-100.79C1.31,152.54-3.06,101.83,2.79,69c.87-4.91,1.71-10.68,8.14-10.28,10.27.63,4.36,16.17,3.71,22.77-4.47,45.27,1.22,118.29,17.71,160.84,16.2,41.79,43.85,48.82,67.46,7.28,28.72-50.52,40.65-153.16,30.5-209.72-2.52-14.04-6.7-28.05-15-39.77Z"/>
      <path class="cls-1" d="m1355.56,133.94c3.46-.13,7.4,3.56,7.16,7.02-.27,3.92-10.76,20.27-12.99,7.35-.94-5.45-1.73-14.09,5.83-14.37Z"/>
      <path class="cls-1" d="m1471.43,133.94c3.46-.13,7.4,3.56,7.16,7.02-.27,3.92-10.76,20.27-12.99,7.35-.94-5.45-1.73-14.09,5.83-14.37Z"/>
      <path class="cls-1" d="m464.67,130.05c3.32-.75,7.65,1.43,8.31,4.77.46,2.32-1.69,11.36-4.14,12.1-6,1.8-14.16-14.6-4.17-16.87Z"/>
    </g>
  </g>
</svg>