<?xml version="1.0" encoding="UTF-8"?>
<svg id="Layer_2" data-name="Layer 2" xmlns="http://www.w3.org/2000/svg" viewBox="0 0 496.49 662.35">
  <defs>
    <style>
      .cls-1 {
        fill: #606060;
        stroke-width: 0px;
      }
    </style>
  </defs>
  <g id="Layer_1-2" data-name="Layer 1">
    <g>
      <path class="cls-1" d="m406.43,273.34h77.79c.97,0,9.43,5.36,10.37,6.92l1.89,368.38-5.01,12.28-486.16,1.43-5.32-8.51L2.16,5.64,13.81,0l385.71,1.93c1.55.94,6.92,9.39,6.92,10.37v261.04Zm-24.2-252.4H22.65v622.35h58.78v-357.85c0-.98,3.25-6.54,4.54-7.61,3.14-.61,9.02-4.5,11.02-4.5h280.06c1.05,0,2.65,4.38,5.19,3.46V20.94Zm93.35,276.6H102.17v340.57c12.99,10.76,35.48,2.89,51.86,5.19v-115.83c0-.97,5.36-9.43,6.92-10.37l255.8.05c1.63.76,6.97,6.26,6.97,6.86v119.28h51.86v-345.75Zm-197.08,238.57h-100.27v107.18h100.27v-107.18Zm124.47,0h-103.73v107.18h103.73v-107.18Z"/>
      <path class="cls-1" d="m321.72,48.6c13.61,4.09,9.81,69.54,4.38,82.18-26.4,7.41-55.47,5.35-82.18.8V53.79l5.19-5.19h72.61Zm-15.54,20.73h-41.53v41.53h41.53v-41.53Z"/>
      <path class="cls-1" d="m152.31,48.6c12.01,3.63,11.35,72.48,5.47,80.73-1.05,1.47-11.19,5.71-12.38,5.71h-62.24c-.61,0-8.64-8.03-8.64-8.64V57.25c0-1.14,4.58-5.25,3.46-8.64h74.34Zm-15.54,20.73h-41.53v41.53h41.53v-41.53Z"/>
      <path class="cls-1" d="m318.27,162.7c1.94.35,7.71,3.91,8.9,5.82,6.02,9.69,7.22,70.54-5.44,80.62h-72.61l-5.19-5.19v-77.79c3.39,1.12,7.5-3.46,8.64-3.46,18.19,0,49.73-2.89,65.69,0Zm-12.08,20.73h-41.53v44.98h41.53v-44.98Z"/>
      <path class="cls-1" d="m148.85,162.7c1.94.35,7.71,3.91,8.9,5.82,6.02,9.69,7.22,70.54-5.44,80.62h-74.34c1.12-3.39-3.46-7.5-3.46-8.64v-69.15c0-.61,8.03-8.64,8.64-8.64,18.19,0,49.73-2.89,65.69,0Zm-12.08,20.73c-8.99,1.43-35.33-3.44-40,3.26l-1.53,41.73h41.53s0-44.98,0-44.98Z"/>
      <path class="cls-1" d="m333.83,418.56h77.79l5.19,5.19v72.61l-5.19,5.19h-72.61c-.61,0-8.64-8.03-8.64-8.64v-65.69c0-1.14,4.58-5.25,3.46-8.64Zm62.25,20.73h-44.98s1.53,38.27,1.53,38.27c4.76,6.83,34.03,1.7,43.46,3.26v-41.53Z"/>
      <path class="cls-1" d="m333.83,314.83h77.79l5.19,5.19v72.61l-5.19,5.19h-72.61c-.61,0-8.64-8.03-8.64-8.64v-65.69c0-1.14,4.58-5.25,3.46-8.64Zm62.25,20.73h-44.98s1.53,38.27,1.53,38.27c4.76,6.83,34.03,1.7,43.46,3.26v-41.53Z"/>
      <path class="cls-1" d="m164.41,314.83c21.79,1.54,54.25-3.67,74.33,0,3.87.71,6.47,1.76,8.65,5.18v72.61l-5.19,5.19h-72.61l-5.19-5.19v-77.79Zm62.25,20.73h-41.53v41.53h41.53v-41.53Z"/>
      <path class="cls-1" d="m169.59,418.56h72.61l5.19,5.19v72.61l-5.19,5.19h-72.61l-5.19-5.19v-72.61l5.19-5.19Zm57.07,20.73h-41.53v41.53h41.53v-41.53Z"/>
    </g>
  </g>
</svg>